<?xml version="1.0" standalone="no"?>
<!DOCTYPE svg PUBLIC "-//W3C//DTD SVG 1.1//EN" "http://www.w3.org/Graphics/SVG/1.1/DTD/svg11.dtd" >
<svg xmlns="http://www.w3.org/2000/svg">
<metadata>
<json>
<![CDATA[
{
	"fontFamily": "Termicons",
	"majorVersion": 1,
	"minorVersion": 0,
	"designer": "Miftakhul Rizky",
	"license": "CC 4.0",
	"description": "High Quality Web Icons\nFont generated by IcoMoon.",
	"version": "Version 1.0",
	"fontId": "Termicons",
	"psName": "Termicons",
	"subFamily": "Regular",
	"fullName": "Termicons"
}
]]>
</json>
</metadata>
<defs>
<font id="Termicons" horiz-adv-x="1024">
<font-face units-per-em="1024" ascent="960" descent="-64" />
<missing-glyph horiz-adv-x="1024" />
<glyph unicode="&#x20;" horiz-adv-x="512" d="" />
<glyph unicode="&#xe900;" glyph-name="ti-badge-discount" data-tags="ti-badge discount" d="M934.4 486.827l-81.067 81.067v114.773c0 47.128-38.205 85.333-85.333 85.333v0h-114.773l-81.067 81.067c-15.424 15.335-36.685 24.814-60.16 24.814s-44.736-9.479-60.164-24.818l-81.063-81.063h-114.773c-47.128 0-85.333-38.205-85.333-85.333v0-114.773l-81.067-81.067c-15.335-15.424-24.814-36.685-24.814-60.16s9.479-44.736 24.818-60.164l81.063-81.063v-114.773c0-47.128 38.205-85.333 85.333-85.333v0h114.773l81.067-81.067c15.424-15.335 36.685-24.814 60.16-24.814s44.736 9.479 60.164 24.818l81.063 81.063h114.773c47.128 0 85.333 38.205 85.333 85.333v0 114.773l81.067 81.067c15.335 15.424 24.814 36.685 24.814 60.16s-9.479 44.736-24.818 60.164l0.004-0.004zM793.173 345.6c-15.467-15.377-25.071-36.637-25.173-60.14v-114.793h-114.773c-23.523-0.102-44.783-9.706-60.156-25.169l-81.071-81.071-81.067 81.067c-15.377 15.467-36.637 25.071-60.14 25.173h-114.793v114.773c-0.102 23.523-9.706 44.783-25.169 60.156l-81.071 81.071 81.067 81.067c15.467 15.377 25.071 36.637 25.173 60.14v114.793h114.773c23.523 0.102 44.783 9.706 60.156 25.169l81.071 81.071 81.067-81.067c15.377-15.467 36.637-25.071 60.14-25.173h114.793v-114.773c0.102-23.523 9.706-44.783 25.169-60.156l81.071-81.071zM670.293 584.96c7.795-7.733 12.621-18.45 12.621-30.293s-4.826-22.56-12.618-30.291l-256.003-256.003c-7.733-7.795-18.45-12.621-30.293-12.621s-22.56 4.826-30.291 12.618l-0.003 0.003c-7.795 7.733-12.621 18.45-12.621 30.293s4.826 22.56 12.618 30.291l256.003 256.003c7.733 7.795 18.45 12.621 30.293 12.621s22.56-4.826 30.291-12.618l0.003-0.003zM682.667 298.667c0-23.564-19.103-42.667-42.667-42.667s-42.667 19.103-42.667 42.667c0 23.564 19.103 42.667 42.667 42.667v0c23.564 0 42.667-19.103 42.667-42.667v0zM341.333 554.667c0 23.564 19.103 42.667 42.667 42.667s42.667-19.103 42.667-42.667c0-23.564-19.103-42.667-42.667-42.667v0c-23.564 0-42.667 19.103-42.667 42.667v0z" />
<glyph unicode="&#xe901;" glyph-name="barcode" data-tags="barcode" d="M384 128c0-23.564-19.103-42.667-42.667-42.667v0h-170.667c-70.692 0-128 57.308-128 128v0 128c0 23.564 19.103 42.667 42.667 42.667s42.667-19.103 42.667-42.667v0-128c0-23.564 19.103-42.667 42.667-42.667v0h170.667c23.564 0 42.667-19.103 42.667-42.667v0zM938.667 384c-23.564 0-42.667-19.103-42.667-42.667v0-128c0-23.564-19.103-42.667-42.667-42.667v0h-170.667c-23.564 0-42.667-19.103-42.667-42.667s19.103-42.667 42.667-42.667v0h170.667c70.692 0 128 57.308 128 128v0 128c0 23.564-19.103 42.667-42.667 42.667v0zM853.333 768h-170.667c-23.564 0-42.667-19.103-42.667-42.667s19.103-42.667 42.667-42.667v0h170.667c23.564 0 42.667-19.103 42.667-42.667v0-128c0-23.564 19.103-42.667 42.667-42.667s42.667 19.103 42.667 42.667v0 128c0 70.692-57.308 128-128 128v0zM341.333 768h-170.667c-70.692 0-128-57.308-128-128v0-128c0-23.564 19.103-42.667 42.667-42.667s42.667 19.103 42.667 42.667v0 128c0 23.564 19.103 42.667 42.667 42.667v0h170.667c23.564 0 42.667 19.103 42.667 42.667s-19.103 42.667-42.667 42.667v0zM341.333 298.667v256c0 23.564-19.103 42.667-42.667 42.667s-42.667-19.103-42.667-42.667v0-256c0-23.564 19.103-42.667 42.667-42.667s42.667 19.103 42.667 42.667v0zM512 597.334c-23.564 0-42.667-19.103-42.667-42.667v0-170.667c0-23.564 19.103-42.667 42.667-42.667s42.667 19.103 42.667 42.667v0 170.667c0 23.564-19.103 42.667-42.667 42.667v0zM768 298.667v256c0 23.564-19.103 42.667-42.667 42.667s-42.667-19.103-42.667-42.667v0-256c0-23.564 19.103-42.667 42.667-42.667s42.667 19.103 42.667 42.667v0z" />
<glyph unicode="&#xe902;" glyph-name="boxes" data-tags="boxes" d="M768 469.334h-50.347c4.75 12.677 7.555 27.325 7.68 42.612v170.722c0 70.692-57.308 128-128 128v0h-170.667c-70.692 0-128-57.308-128-128v0-170.667c0.125-15.341 2.93-29.989 7.968-43.552l-0.288 0.885h-50.347c-70.692 0-128-57.308-128-128v0-170.667c0-70.692 57.308-128 128-128v0h512c70.692 0 128 57.308 128 128v0 170.667c0 70.692-57.308 128-128 128v0zM384 682.667c0 23.564 19.103 42.667 42.667 42.667v0h42.667v-42.667c0-23.564 19.103-42.667 42.667-42.667s42.667 19.103 42.667 42.667v0 42.667h42.667c23.564 0 42.667-19.103 42.667-42.667v0-170.667c0-23.564-19.103-42.667-42.667-42.667v0h-170.667c-23.564 0-42.667 19.103-42.667 42.667v0zM213.333 170.667v170.667c0 23.564 19.103 42.667 42.667 42.667v0h42.667v-42.667c0-23.564 19.103-42.667 42.667-42.667s42.667 19.103 42.667 42.667v0 42.667h85.333v-256h-213.333c-23.564 0-42.667 19.103-42.667 42.667v0zM810.667 170.667c0-23.564-19.103-42.667-42.667-42.667v0h-213.333v256h85.333v-42.667c0-23.564 19.103-42.667 42.667-42.667s42.667 19.103 42.667 42.667v0 42.667h42.667c23.564 0 42.667-19.103 42.667-42.667v0z" />
<glyph unicode="&#xe903;" glyph-name="calculator" data-tags="calculator" d="M768 896h-512c-70.692 0-128-57.308-128-128v0-682.667c0-70.692 57.308-128 128-128v0h512c70.692 0 128 57.308 128 128v0 682.667c0 70.692-57.308 128-128 128v0zM810.667 85.334c0-23.564-19.103-42.667-42.667-42.667v0h-512c-23.564 0-42.667 19.103-42.667 42.667v0 682.667c0 23.564 19.103 42.667 42.667 42.667v0h512c23.564 0 42.667-19.103 42.667-42.667v0zM725.333 682.667c0-23.564-19.103-42.667-42.667-42.667v0h-341.333c-23.564 0-42.667 19.103-42.667 42.667s19.103 42.667 42.667 42.667v0h341.333c23.564 0 42.667-19.103 42.667-42.667v0zM384 512c0-23.564-19.103-42.667-42.667-42.667s-42.667 19.103-42.667 42.667c0 23.564 19.103 42.667 42.667 42.667v0c23.564 0 42.667-19.103 42.667-42.667v0zM554.667 512c0-23.564-19.103-42.667-42.667-42.667s-42.667 19.103-42.667 42.667c0 23.564 19.103 42.667 42.667 42.667v0c23.564 0 42.667-19.103 42.667-42.667v0zM725.333 512c0-23.564-19.103-42.667-42.667-42.667s-42.667 19.103-42.667 42.667c0 23.564 19.103 42.667 42.667 42.667v0c23.564 0 42.667-19.103 42.667-42.667v0zM725.333 341.334c0-23.564-19.103-42.667-42.667-42.667s-42.667 19.103-42.667 42.667c0 23.564 19.103 42.667 42.667 42.667v0c23.564 0 42.667-19.103 42.667-42.667v0zM554.667 341.334c0-23.564-19.103-42.667-42.667-42.667s-42.667 19.103-42.667 42.667c0 23.564 19.103 42.667 42.667 42.667v0c23.564 0 42.667-19.103 42.667-42.667v0zM384 341.334c0-23.564-19.103-42.667-42.667-42.667s-42.667 19.103-42.667 42.667c0 23.564 19.103 42.667 42.667 42.667v0c23.564 0 42.667-19.103 42.667-42.667v0zM725.333 170.667c0-23.564-19.103-42.667-42.667-42.667s-42.667 19.103-42.667 42.667c0 23.564 19.103 42.667 42.667 42.667v0c23.564 0 42.667-19.103 42.667-42.667v0zM554.667 170.667c0-23.564-19.103-42.667-42.667-42.667s-42.667 19.103-42.667 42.667c0 23.564 19.103 42.667 42.667 42.667v0c23.564 0 42.667-19.103 42.667-42.667v0zM384 170.667c0-23.564-19.103-42.667-42.667-42.667s-42.667 19.103-42.667 42.667c0 23.564 19.103 42.667 42.667 42.667v0c23.564 0 42.667-19.103 42.667-42.667v0z" />
<glyph unicode="&#xe904;" glyph-name="coupon-discount" data-tags="coupon discount" d="M864.427 410.027c-2.136 4.91-3.379 10.63-3.379 16.64s1.243 11.73 3.485 16.917l-0.106-0.277 62.293 146.347c6.524 14.85 10.322 32.16 10.322 50.357 0 70.121-56.385 127.073-126.289 127.989l-0.086 0.001h-597.333c-69.99-0.917-126.375-57.869-126.375-127.99 0-18.197 3.797-35.507 10.643-51.181l-0.321 0.824 62.293-146.347c2.136-4.91 3.379-10.63 3.379-16.64s-1.243-11.73-3.485-16.917l0.106 0.277-62.293-146.347c-6.524-14.85-10.322-32.16-10.322-50.357 0-70.121 56.385-127.073 126.289-127.989l0.086-0.001h597.333c70.542 0.199 127.651 57.43 127.651 128 0 18.193-3.796 35.5-10.638 51.172l0.321-0.825zM785.92 376.32l62.72-146.347c2.091-4.863 3.306-10.524 3.306-16.469 0-8.809-2.669-16.994-7.243-23.791l0.097 0.152c-7.467-11.238-19.879-18.677-34.057-19.198l-0.076-0.002h-597.333c-14.744 0.079-27.709 7.624-35.315 19.044l-0.098 0.156c-4.477 6.644-7.146 14.829-7.146 23.638 0 5.945 1.216 11.605 3.412 16.747l-0.106-0.278 62.72 146.347c6.522 14.847 10.317 32.153 10.317 50.347s-3.796 35.5-10.638 51.171l0.321-0.824-61.44 146.347c-2.091 4.863-3.306 10.524-3.306 16.469 0 8.809 2.669 16.994 7.243 23.791l-0.097-0.152c7.467 11.238 19.879 18.677 34.057 19.198l0.076 0.002h597.333c14.744-0.079 27.709-7.624 35.315-19.044l0.098-0.156c4.477-6.644 7.146-14.829 7.146-23.638 0-5.945-1.216-11.605-3.412-16.747l0.106 0.278-62.72-146.347c-6.93-15.252-10.969-33.076-10.969-51.842 0-17.623 3.561-34.414 10.004-49.692l-0.315 0.841zM670.293 584.96c7.795-7.733 12.621-18.45 12.621-30.293s-4.826-22.56-12.618-30.291l-256.003-256.003c-7.733-7.795-18.45-12.621-30.293-12.621s-22.56 4.826-30.291 12.618l-0.003 0.003c-7.795 7.733-12.621 18.45-12.621 30.293s4.826 22.56 12.618 30.291l256.003 256.003c7.733 7.795 18.45 12.621 30.293 12.621s22.56-4.826 30.291-12.618l0.003-0.003zM682.667 298.667c0-23.564-19.103-42.667-42.667-42.667s-42.667 19.103-42.667 42.667c0 23.564 19.103 42.667 42.667 42.667v0c23.564 0 42.667-19.103 42.667-42.667v0zM341.333 554.667c0 23.564 19.103 42.667 42.667 42.667s42.667-19.103 42.667-42.667c0-23.564-19.103-42.667-42.667-42.667v0c-23.564 0-42.667 19.103-42.667 42.667v0z" />
<glyph unicode="&#xe905;" glyph-name="delivery-truck" data-tags="delivery truck" d="M955.733 432.214l-85.333 113.92c-23.6 31.229-60.668 51.2-102.4 51.2v0h-213.333v128c0 70.692-57.308 128-128 128v0h-256c-70.692 0-128-57.308-128-128v0-512c0-70.692 57.308-128 128-128v0h7.68c18.382-49.611 65.296-84.33 120.32-84.33s101.938 34.719 120.032 83.444l0.288 0.886h186.027c18.382-49.611 65.296-84.33 120.32-84.33s101.938 34.719 120.032 83.444l0.288 0.886h7.68c70.692 0 128 57.308 128 128v0 142.080c0 28.96-9.618 55.674-25.833 77.122l0.233-0.322zM128 213.334v512c0 23.564 19.103 42.667 42.667 42.667v0h256c23.564 0 42.667-19.103 42.667-42.667v0-554.667h-50.347c-18.382 49.611-65.296 84.33-120.32 84.33s-101.938-34.719-120.032-83.444l-0.288-0.886h-7.68c-23.564 0-42.667 19.103-42.667 42.667v0zM298.667 85.334c-23.564 0-42.667 19.103-42.667 42.667s19.103 42.667 42.667 42.667c23.564 0 42.667-19.103 42.667-42.667v0c0-23.564-19.103-42.667-42.667-42.667v0zM725.333 85.334c-23.564 0-42.667 19.103-42.667 42.667s19.103 42.667 42.667 42.667c23.564 0 42.667-19.103 42.667-42.667v0c0-23.564-19.103-42.667-42.667-42.667v0zM896 213.334c0-23.564-19.103-42.667-42.667-42.667v0h-7.68c-18.382 49.611-65.296 84.33-120.32 84.33s-101.938-34.719-120.032-83.444l-0.288-0.886h-50.347v341.333h213.333c13.911 0 26.267-6.657 34.056-16.959l0.078-0.107 85.333-113.92c5.327-7.042 8.533-15.947 8.533-25.6v0z" />
<glyph unicode="&#xe906;" glyph-name="discount" data-tags="discount" d="M968.96 823.040l-853.333-853.333c-7.733-7.795-18.45-12.621-30.293-12.621s-22.56 4.826-30.291 12.618l-0.003 0.003c-7.795 7.733-12.621 18.45-12.621 30.293s4.826 22.56 12.618 30.291l853.336 853.336c7.753 7.753 18.463 12.548 30.293 12.548 23.661 0 42.841-19.181 42.841-42.841 0-11.83-4.795-22.541-12.548-30.293v0zM981.333 128c0-94.257-76.41-170.667-170.667-170.667s-170.667 76.41-170.667 170.667c0 94.257 76.41 170.667 170.667 170.667v0c94.257 0 170.667-76.41 170.667-170.667v0zM896 128c0 47.128-38.205 85.333-85.333 85.333s-85.333-38.205-85.333-85.333c0-47.128 38.205-85.333 85.333-85.333v0c47.128 0 85.333 38.205 85.333 85.333v0zM42.667 725.334c0 94.257 76.41 170.667 170.667 170.667s170.667-76.41 170.667-170.667c0-94.257-76.41-170.667-170.667-170.667v0c-94.257 0-170.667 76.41-170.667 170.667v0zM128 725.334c0-47.128 38.205-85.333 85.333-85.333s85.333 38.205 85.333 85.333c0 47.128-38.205 85.333-85.333 85.333v0c-47.128 0-85.333-38.205-85.333-85.333v0z" />
<glyph unicode="&#xe907;" glyph-name="door-sign" data-tags="door sign" d="M744.96 467.2l-134.4 134.827c18.106 21.727 29.183 49.866 29.44 80.584v0.056c0.002 0.279 0.003 0.609 0.003 0.94 0 70.692-57.308 128-128 128s-128-57.308-128-128c0-29.944 10.282-57.487 27.509-79.289l-0.205 0.269-137.387-137.813c-59.215-11.977-103.181-63.563-103.253-125.432v-128.008c0-70.692 57.308-128 128-128v0h426.667c70.692 0 128 57.308 128 128v0 128c-0.317 63.506-46.833 116.053-107.643 125.77l-0.73 0.096zM512 554.667c3.387-0.311 7.326-0.489 11.307-0.489s7.919 0.178 11.809 0.525l-0.502-0.036 87.893-85.333h-225.707l88.32 88.32c8.021-1.766 17.284-2.847 26.775-2.985l0.105-0.001zM512 725.334c23.564 0 42.667-19.103 42.667-42.667s-19.103-42.667-42.667-42.667c-23.564 0-42.667 19.103-42.667 42.667v0c0 23.564 19.103 42.667 42.667 42.667v0zM768 213.334c0-23.564-19.103-42.667-42.667-42.667v0h-426.667c-23.564 0-42.667 19.103-42.667 42.667v0 128c0 23.564 19.103 42.667 42.667 42.667v0h426.667c23.564 0 42.667-19.103 42.667-42.667v0z" />
<glyph unicode="&#xe908;" glyph-name="filter" data-tags="filter" d="M887.040 826.454c-21.697 41.62-64.524 69.548-113.874 69.548-0.166 0-0.332 0-0.498-0.001h-521.361c-0.14 0.001-0.306 0.001-0.473 0.001-49.35 0-92.177-27.928-113.538-68.841l-0.336-0.707c-8.737-16.855-13.861-36.796-13.861-57.934 0-28.070 9.036-54.030 24.357-75.13l-0.256 0.37 186.027-261.12c5.062-6.642 8.111-15.056 8.111-24.183 0-0.198-0.001-0.396-0.004-0.594v0.030-282.027c-0.005-0.427-0.008-0.932-0.008-1.437 0-45.883 22.562-86.496 57.197-111.35l0.411-0.28c19.479-13.868 43.755-22.175 69.971-22.187h0.003c0.554-0.009 1.206-0.015 1.861-0.015 14.649 0 28.675 2.665 41.621 7.537l-0.815-0.269 85.333 30.72c50.415 20.277 85.358 68.77 85.358 125.424 0 0.906-0.009 1.81-0.027 2.711l0.002-0.135v251.307c-0.003 0.168-0.004 0.366-0.004 0.564 0 9.126 3.048 17.541 8.182 24.281l-0.072-0.098 186.027 261.12c15.219 20.799 24.352 46.886 24.352 75.107 0 21.001-5.058 40.821-14.021 58.307l0.336-0.721zM807.68 741.12l-186.453-258.987c-14.933-20.391-23.895-45.972-23.895-73.646 0-0.209 0.001-0.417 0.002-0.626v0.032-250.88c0.019-0.519 0.030-1.128 0.030-1.741 0-20.641-12.317-38.405-30.002-46.344l-0.321-0.129-85.333-30.72c-3.745-1.393-8.072-2.199-12.588-2.199-8.082 0-15.561 2.583-21.656 6.968l0.11-0.076c-12.757 9.678-20.912 24.849-20.912 41.924 0 0.261 0.002 0.522 0.006 0.782v-0.039 282.453c0.001 0.176 0.001 0.385 0.001 0.594 0 27.674-8.962 53.255-24.141 73.999l0.247-0.353-186.453 261.12c-4.744 6.779-7.58 15.197-7.58 24.277 0 6.685 1.537 13.011 4.278 18.643l-0.111-0.253c6.891 14.637 21.464 24.615 38.383 24.747h521.404c0.088 0.001 0.193 0.001 0.297 0.001 16.562 0 30.921-9.437 37.991-23.227l0.112-0.24c2.86-5.575 4.536-12.164 4.536-19.144 0-9.306-2.979-17.916-8.036-24.928l0.086 0.126z" />
<glyph unicode="&#xe909;" glyph-name="gift" data-tags="gift" d="M853.333 725.334h-128v85.333c0 47.128-38.205 85.333-85.333 85.333v0h-85.333c-15.766-0.169-30.466-4.587-43.051-12.161l0.385 0.215c-12.201 7.359-26.9 11.778-42.619 11.946h-85.381c-47.128 0-85.333-38.205-85.333-85.333v0-85.333h-128c-70.692 0-128-57.308-128-128v0-85.333c0.16-55.254 35.305-102.258 84.442-120.038l0.891-0.282v-306.347c0-70.692 57.308-128 128-128v0h512c70.692 0 128 57.308 128 128v0 306.347c50.028 18.062 85.173 65.066 85.333 120.3v85.353c0 70.692-57.308 128-128 128v0zM640 810.667v-85.333h-85.333v85.333zM384 810.667h85.333v-85.333h-85.333zM128 597.334c0 23.564 19.103 42.667 42.667 42.667v0h298.667v-170.667h-298.667c-23.564 0-42.667 19.103-42.667 42.667v0zM213.333 85.334v298.667h256v-341.333h-213.333c-23.564 0-42.667 19.103-42.667 42.667v0zM810.667 85.334c0-23.564-19.103-42.667-42.667-42.667v0h-213.333v341.333h256zM896 512c0-23.564-19.103-42.667-42.667-42.667v0h-298.667v170.667h298.667c23.564 0 42.667-19.103 42.667-42.667v0z" />
<glyph unicode="&#xe90a;" glyph-name="hand-cart" data-tags="hand cart" d="M810.667 622.934l61.013 59.733c7.807 7.807 12.636 18.593 12.636 30.507 0 23.827-19.316 43.143-43.143 43.143-11.914 0-22.699-4.829-30.507-12.636v0l-457.387-458.24c-16.072 7.276-34.847 11.516-54.613 11.516s-38.542-4.24-55.467-11.86l0.854 0.344-66.133 66.133c-7.412 6.377-17.129 10.259-27.753 10.259-23.564 0-42.667-19.103-42.667-42.667 0-10.624 3.883-20.341 10.307-27.809l-0.047 0.056 65.707-66.133c-8.075-16.301-12.8-35.496-12.8-55.794 0-70.692 57.308-128 128-128s128 57.308 128 128c0 20.298-4.725 39.493-13.134 56.544l0.334-0.75 337.067 337.493 59.733-60.16c7.712-7.668 18.343-12.407 30.080-12.407s22.368 4.74 30.082 12.409l-0.002-0.002c7.668 7.712 12.407 18.343 12.407 30.080s-4.74 22.368-12.409 30.082l0.002-0.002zM328.96 140.374c-7.733-7.795-18.45-12.621-30.293-12.621s-22.56 4.826-30.291 12.618l-0.003 0.003c-7.795 7.733-12.621 18.45-12.621 30.293s4.826 22.56 12.618 30.291l0.003 0.003c7.709 7.648 18.326 12.374 30.047 12.374 0.087 0 0.173 0 0.26-0.001h-0.013c11.656-0.051 22.2-4.767 29.869-12.376l-0.003 0.003c7.923-7.753 12.836-18.555 12.836-30.505 0-11.738-4.74-22.37-12.411-30.084l0.002 0.002zM238.080 412.16c15.46-15.55 36.866-25.173 60.519-25.173 0.024 0 0.048 0 0.071 0h-0.004c23.523 0.102 44.783 9.706 60.156 25.169l0.004 0.004 120.747 120.32c15.462 15.446 25.027 36.792 25.027 60.373s-9.565 44.928-25.026 60.373l-0.001 0.001-60.16 60.587c-15.446 15.462-36.792 25.027-60.373 25.027s-44.928-9.565-60.373-25.026l-120.748-120.748c-15.462-15.446-25.027-36.792-25.027-60.373s9.565-44.928 25.026-60.373l0.001-0.001zM358.827 653.227l60.587-60.16-120.747-120.747-60.587 60.16z" />
<glyph unicode="&#xe90b;" glyph-name="megaphone" data-tags="megaphone" d="M896 469.334c-0.194 31.22-17.125 58.443-42.264 73.169l-0.403 0.218v139.947c-0.070 49.786-28.553 92.902-70.099 114.011l-0.728 0.336c-16.695 8.542-36.42 13.548-57.313 13.548-28.899 0-55.561-9.577-76.985-25.73l0.325 0.235-193.28-145.067h-241.92c-0.133 0-0.291 0.001-0.449 0.001-94.257 0-170.667-76.41-170.667-170.667 0-4.354 0.163-8.671 0.483-12.943l-0.034 0.569c7.449-78.133 65.692-140.728 141.009-154.715l1.071-0.165 128-256c0.956-2.281 2.101-4.247 3.463-6.041l-0.049 0.068c15.671-21.716 40.906-35.685 69.404-35.685 9.352 0 18.352 1.504 26.773 4.284l-0.603-0.172c33.805 11.863 57.609 43.504 57.609 80.704 0 0.428-0.003 0.854-0.009 1.28l0.001-0.064v197.547l179.2-134.4c21.126-15.982 47.84-25.6 76.8-25.6v0c0.108 0 0.235-0.001 0.363-0.001 20.735 0 40.29 5.048 57.505 13.982l-0.695-0.328c42.274 21.445 70.756 64.561 70.827 114.337v139.956c25.542 14.943 42.472 42.166 42.667 73.359v0.028zM128 462.934c-0.128 1.748-0.2 3.787-0.2 5.843 0 23.753 9.705 45.238 25.365 60.709l0.009 0.008c15.377 15.467 36.637 25.071 60.14 25.173h213.353v-170.667h-206.080c-0.631-0.016-1.374-0.025-2.119-0.025-46.072 0-84.174 34.123-90.412 78.475l-0.056 0.483zM384 91.734l-101.973 206.933h101.973zM768 256c0-23.564-19.103-42.667-42.667-42.667-9.653 0-18.558 3.206-25.707 8.611l0.107-0.078-187.733 140.8v213.333l187.733 140.8c7.042 5.327 15.947 8.533 25.6 8.533 23.564 0 42.667-19.103 42.667-42.667v0z" />
<glyph unicode="&#xe90c;" glyph-name="receipt" data-tags="receipt" d="M938.667 768h-853.333c-23.564 0-42.667-19.103-42.667-42.667s19.103-42.667 42.667-42.667v0h42.667v-628.053c0.038-47.1 38.228-85.267 85.333-85.267 7.272 0 14.331 0.91 21.070 2.621l-0.59-0.127 97.28 24.32c3.075 0.792 6.604 1.247 10.24 1.247s7.165-0.455 10.535-1.311l-0.295 0.064 128-32.427c9.342-2.439 20.066-3.84 31.117-3.84 0.010 0 0.021 0 0.031 0h-0.002c0.009 0 0.019 0 0.029 0 11.052 0 21.776 1.401 32.005 4.034l-0.888-0.194 128 32.427c3.075 0.792 6.604 1.247 10.24 1.247s7.165-0.455 10.535-1.311l-0.295 0.064 97.28-24.32c6.906-2.012 14.839-3.17 23.042-3.17 47.128 0 85.333 38.205 85.333 85.333 0 0.214-0.001 0.429-0.002 0.643v-0.033 628.053h42.667c23.564 0 42.667 19.103 42.667 42.667s-19.103 42.667-42.667 42.667v0zM810.667 54.614l-96.853 24.32c-9.35 2.444-20.085 3.847-31.147 3.847s-21.796-1.403-32.035-4.041l0.888 0.194-128-32.427c-3.075-0.792-6.604-1.247-10.24-1.247s-7.165 0.455-10.535 1.311l0.295-0.064-128 32.427c-9.37 2.455-20.128 3.864-31.214 3.864-0.876 0-1.751-0.009-2.623-0.026l0.13 0.002c-0.009 0-0.019 0-0.029 0-11.052 0-21.776-1.401-32.005-4.034l0.888 0.194-96.853-24.32v628.053h597.333zM298.667 512c0 23.564 19.103 42.667 42.667 42.667v0h213.333c23.564 0 42.667-19.103 42.667-42.667s-19.103-42.667-42.667-42.667v0h-213.333c-23.564 0-42.667 19.103-42.667 42.667v0zM298.667 341.334c0 23.564 19.103 42.667 42.667 42.667v0h213.333c23.564 0 42.667-19.103 42.667-42.667s-19.103-42.667-42.667-42.667v0h-213.333c-23.564 0-42.667 19.103-42.667 42.667v0zM640 512c0 23.564 19.103 42.667 42.667 42.667s42.667-19.103 42.667-42.667c0-23.564-19.103-42.667-42.667-42.667v0c-23.564 0-42.667 19.103-42.667 42.667v0zM640 341.334c0 23.564 19.103 42.667 42.667 42.667s42.667-19.103 42.667-42.667c0-23.564-19.103-42.667-42.667-42.667v0c-23.564 0-42.667 19.103-42.667 42.667v0z" />
<glyph unicode="&#xe90d;" glyph-name="scan" data-tags="scan" d="M384-0c0-23.564-19.103-42.667-42.667-42.667v0h-170.667c-70.692 0-128 57.308-128 128v0 170.667c0 23.564 19.103 42.667 42.667 42.667s42.667-19.103 42.667-42.667v0-170.667c0-23.564 19.103-42.667 42.667-42.667v0h170.667c23.564 0 42.667-19.103 42.667-42.667v0zM938.667 298.667c-23.564 0-42.667-19.103-42.667-42.667v0-170.667c0-23.564-19.103-42.667-42.667-42.667v0h-170.667c-23.564 0-42.667-19.103-42.667-42.667s19.103-42.667 42.667-42.667v0h170.667c70.692 0 128 57.308 128 128v0 170.667c0 23.564-19.103 42.667-42.667 42.667v0zM853.333 896h-170.667c-23.564 0-42.667-19.103-42.667-42.667s19.103-42.667 42.667-42.667v0h170.667c23.564 0 42.667-19.103 42.667-42.667v0-170.667c0-23.564 19.103-42.667 42.667-42.667s42.667 19.103 42.667 42.667v0 170.667c0 70.692-57.308 128-128 128v0zM85.333 554.667c23.564 0 42.667 19.103 42.667 42.667v0 170.667c0 23.564 19.103 42.667 42.667 42.667v0h170.667c23.564 0 42.667 19.103 42.667 42.667s-19.103 42.667-42.667 42.667v0h-170.667c-70.692 0-128-57.308-128-128v0-170.667c0-23.564 19.103-42.667 42.667-42.667v0zM938.667 469.334h-853.333c-23.564 0-42.667-19.103-42.667-42.667s19.103-42.667 42.667-42.667v0h853.333c23.564 0 42.667 19.103 42.667 42.667s-19.103 42.667-42.667 42.667v0z" />
<glyph unicode="&#xe90e;" glyph-name="shop" data-tags="shop" d="M853.333 896h-682.667c-70.692 0-128-57.308-128-128v0-256c0.16-55.254 35.305-102.258 84.442-120.038l0.891-0.282v-306.347c0-70.692 57.308-128 128-128v0h512c70.692 0 128 57.308 128 128v0 306.347c50.028 18.062 85.173 65.066 85.333 120.3v256.020c0 70.692-57.308 128-128 128v0zM426.667 42.667v128c0 23.564 19.103 42.667 42.667 42.667v0h85.333c23.564 0 42.667-19.103 42.667-42.667v0-128zM768 42.667h-85.333v128c0 70.692-57.308 128-128 128v0h-85.333c-70.692 0-128-57.308-128-128v0-128h-85.333c-23.564 0-42.667 19.103-42.667 42.667v0 306.347c50.028 18.062 85.173 65.066 85.333 120.3v0.020c0 23.564 19.103 42.667 42.667 42.667s42.667-19.103 42.667-42.667v0c0-70.692 57.308-128 128-128s128 57.308 128 128v0c0 23.564 19.103 42.667 42.667 42.667s42.667-19.103 42.667-42.667v0c0.16-55.254 35.305-102.258 84.442-120.038l0.891-0.282v-306.347c0-23.564-19.103-42.667-42.667-42.667v0zM896 512c0-23.564-19.103-42.667-42.667-42.667s-42.667 19.103-42.667 42.667v0c0 70.692-57.308 128-128 128s-128-57.308-128-128v0c0-23.564-19.103-42.667-42.667-42.667s-42.667 19.103-42.667 42.667v0c0 70.692-57.308 128-128 128s-128-57.308-128-128v0c0-23.564-19.103-42.667-42.667-42.667s-42.667 19.103-42.667 42.667v0 256c0 23.564 19.103 42.667 42.667 42.667v0h682.667c23.564 0 42.667-19.103 42.667-42.667v0z" />
<glyph unicode="&#xe90f;" glyph-name="shopping-bag" data-tags="shopping bag" d="M932.693 592.64c-23.654 28.994-59.384 47.36-99.404 47.36-0.003 0-0.006 0-0.010 0h-107.946v42.667c0 117.821-95.513 213.333-213.333 213.333s-213.333-95.513-213.333-213.333v0-42.667h-107.947c-70.636-0.075-127.868-57.354-127.868-128 0-9.522 1.040-18.801 3.012-27.73l-0.158 0.85 91.307-426.667c12.826-58.211 63.975-101.12 125.146-101.12 0.103 0 0.207 0 0.31 0h459.077c0.087 0 0.191 0 0.294 0 61.171 0 112.32 42.91 124.988 100.271l0.157 0.849 91.307 426.667c1.833 8.121 2.884 17.447 2.884 27.018 0 30.61-10.745 58.711-28.669 80.736l0.185-0.234zM384 682.667c0 70.692 57.308 128 128 128s128-57.308 128-128v0-42.667h-256zM783.36 76.374c-4.271-19.409-21.324-33.717-41.718-33.717-0.334 0-0.667 0.004-0.999 0.011l0.049-0.001h-458.24c-0.283-0.007-0.615-0.011-0.949-0.011-20.394 0-37.446 14.308-41.665 33.434l-0.052 0.283-91.307 426.667c-0.611 2.707-0.961 5.816-0.961 9.006 0 10.203 3.582 19.57 9.556 26.912l-0.062-0.078c7.885 9.667 19.796 15.79 33.138 15.79 0.2 0 0.4-0.001 0.599-0.004h107.917v-85.333c0-23.564 19.103-42.667 42.667-42.667s42.667 19.103 42.667 42.667v0 85.333h256v-85.333c0-23.564 19.103-42.667 42.667-42.667s42.667 19.103 42.667 42.667v0 85.333h107.947c13.235-0.090 25.027-6.193 32.792-15.71l0.061-0.077c5.913-7.264 9.495-16.631 9.495-26.834 0-3.19-0.35-6.299-1.014-9.29l0.053 0.284z" />
<glyph unicode="&#xe910;" glyph-name="shopping-basket" data-tags="shopping basket" d="M853.333 768h-25.173l-115.2 115.627c-7.753 7.753-18.463 12.548-30.293 12.548-23.661 0-42.841-19.181-42.841-42.841 0-11.83 4.795-22.541 12.548-30.293v0l55.467-55.040h-391.68l55.467 55.040c7.753 7.753 12.548 18.463 12.548 30.293 0 23.661-19.181 42.841-42.841 42.841-11.83 0-22.541-4.795-30.293-12.548v0l-115.2-115.627h-25.173c-70.692 0-128-57.308-128-128v0-42.667c0.231-56.776 37.391-104.812 88.694-121.348l0.906-0.252 54.613-407.467c8.71-62.971 62.182-110.938 126.858-110.938 0.402 0 0.803 0.002 1.204 0.006h396.739c0.339-0.003 0.741-0.005 1.142-0.005 64.676 0 118.148 47.968 126.782 110.268l0.076 0.671 54.613 407.467c51.036 17.612 87.040 65.236 87.040 121.27 0 0.116 0 0.232 0 0.348v-0.018 42.667c0 70.692-57.308 128-128 128v0zM752.64 79.787c-2.839-21.057-20.696-37.122-42.305-37.122-0.127 0-0.254 0.001-0.381 0.002h-396.354c-0.108-0.001-0.235-0.002-0.362-0.002-21.609 0-39.466 16.064-42.281 36.902l-0.024 0.22-51.627 389.547h585.387zM896 597.334c0-23.564-19.103-42.667-42.667-42.667v0h-682.667c-23.564 0-42.667 19.103-42.667 42.667v0 42.667c0 23.564 19.103 42.667 42.667 42.667v0h682.667c23.564 0 42.667-19.103 42.667-42.667v0zM597.333 170.667v170.667c0 23.564 19.103 42.667 42.667 42.667s42.667-19.103 42.667-42.667v0-170.667c0-23.564-19.103-42.667-42.667-42.667s-42.667 19.103-42.667 42.667v0zM341.333 170.667v170.667c0 23.564 19.103 42.667 42.667 42.667s42.667-19.103 42.667-42.667v0-170.667c0-23.564-19.103-42.667-42.667-42.667s-42.667 19.103-42.667 42.667v0z" />
<glyph unicode="&#xe911;" glyph-name="shopping-cart" data-tags="shopping cart" d="M926.72 673.707c-23.586 31.476-60.799 51.627-102.719 51.627-0.038 0-0.076 0-0.114 0h-579.834l-13.653 42.667c-18.102 50.141-65.281 85.334-120.68 85.334-0.174 0-0.347 0-0.52-0.001h-23.866c-23.564 0-42.667-19.103-42.667-42.667s19.103-42.667 42.667-42.667v0h23.893c0.033 0 0.071 0 0.11 0 18.678 0 34.552-12.002 40.333-28.714l0.090-0.3 20.907-67.413 72.533-355.413c12.153-59.033 63.681-102.797 125.437-102.827h412.163c0.511-0.007 1.113-0.012 1.717-0.012 63.313 0 115.889 45.967 126.176 106.349l0.107 0.756 40.533 243.2c2.565 9.573 4.038 20.563 4.038 31.898 0 29.571-10.028 56.8-26.868 78.472l0.216-0.289zM864.853 584.96v-5.12l-40.533-245.333c-3.404-20.448-20.963-35.844-42.118-35.844-0.193 0-0.386 0.001-0.578 0.004h-412.984c-0.256-0.006-0.558-0.009-0.86-0.009-20.547 0-37.701 14.523-41.758 33.864l-0.049 0.278-60.587 307.2h558.507c13.911 0 26.267-6.657 34.056-16.959l0.078-0.107c5.383-7.065 8.624-16.014 8.624-25.72 0-4.37-0.657-8.586-1.877-12.555l0.080 0.302zM469.333 85.334c0-47.128-38.205-85.333-85.333-85.333s-85.333 38.205-85.333 85.333c0 47.128 38.205 85.333 85.333 85.333v0c47.128 0 85.333-38.205 85.333-85.333v0zM853.333 85.334c0-47.128-38.205-85.333-85.333-85.333s-85.333 38.205-85.333 85.333c0 47.128 38.205 85.333 85.333 85.333v0c47.128 0 85.333-38.205 85.333-85.333v0z" />
<glyph unicode="&#xe912;" glyph-name="shopping-list" data-tags="shopping list" d="M725.333 768h-50.347c-18.062 50.028-65.066 85.173-120.3 85.333h-85.353c-55.254-0.16-102.258-35.305-120.038-84.442l-0.282-0.891h-50.347c-70.692 0-128-57.308-128-128v0-554.667c0-70.692 57.308-128 128-128v0h426.667c70.692 0 128 57.308 128 128v0 554.667c0 70.692-57.308 128-128 128v0zM469.333 768h85.333c23.564 0 42.667-19.103 42.667-42.667s-19.103-42.667-42.667-42.667v0h-85.333c-23.564 0-42.667 19.103-42.667 42.667s19.103 42.667 42.667 42.667v0zM768 85.334c0-23.564-19.103-42.667-42.667-42.667v0h-426.667c-23.564 0-42.667 19.103-42.667 42.667v0 554.667c0 23.564 19.103 42.667 42.667 42.667v0h50.347c18.062-50.028 65.066-85.173 120.3-85.333h85.353c55.254 0.16 102.258 35.305 120.038 84.442l0.282 0.891h50.347c23.564 0 42.667-19.103 42.667-42.667v0zM682.667 426.667c0-23.564-19.103-42.667-42.667-42.667v0h-128c-23.564 0-42.667 19.103-42.667 42.667s19.103 42.667 42.667 42.667v0h128c23.564 0 42.667-19.103 42.667-42.667v0zM682.667 256c0-23.564-19.103-42.667-42.667-42.667v0h-128c-23.564 0-42.667 19.103-42.667 42.667s19.103 42.667 42.667 42.667v0h128c23.564 0 42.667-19.103 42.667-42.667v0zM426.667 426.667c0-23.564-19.103-42.667-42.667-42.667s-42.667 19.103-42.667 42.667c0 23.564 19.103 42.667 42.667 42.667v0c23.564 0 42.667-19.103 42.667-42.667v0zM426.667 256c0-23.564-19.103-42.667-42.667-42.667s-42.667 19.103-42.667 42.667c0 23.564 19.103 42.667 42.667 42.667v0c23.564 0 42.667-19.103 42.667-42.667v0z" />
<glyph unicode="&#xe913;" glyph-name="shopping-tag" data-tags="shopping tag" d="M913.92 697.6c-5.007 62.92-54.84 112.753-117.311 117.731l-0.449 0.029-279.893 21.333c-2.92 0.237-6.322 0.372-9.755 0.372-35.347 0-67.348-14.328-90.512-37.492v0l-334.507-334.080c-23.257-23.179-37.648-55.242-37.648-90.667s14.39-67.488 37.644-90.663l0.004-0.004 302.507-301.653c23.158-23.13 55.135-37.434 90.453-37.434s67.296 14.304 90.455 37.435l334.506 334.506c23.165 23.164 37.492 55.164 37.492 90.512 0 3.433-0.135 6.835-0.4 10.2l0.028-0.445zM443.733 42.667l-301.653 302.080c-7.668 7.712-12.407 18.343-12.407 30.080s4.74 22.368 12.409 30.082l-0.002-0.002 28.587 30.293 362.24-362.24-30.293-29.867c-7.667-7.424-18.131-11.999-29.664-11.999-11.315 0-21.601 4.405-29.238 11.593l0.022-0.020zM837.973 376.747l-243.627-243.627-361.813 362.24 243.627 244.053c7.72 7.716 18.383 12.488 30.161 12.488 1.098 0 2.186-0.041 3.263-0.123l-0.143 0.009 280.32-21.76c20.973-1.669 37.584-18.28 39.244-39.104l0.010-0.15 21.333-279.893c0.092-1.053 0.145-2.278 0.145-3.515 0-11.793-4.784-22.468-12.518-30.191v0zM715.093 615.68c7.775-7.73 12.587-18.433 12.587-30.26 0-23.564-19.103-42.667-42.667-42.667s-42.667 19.103-42.667 42.667c0 11.827 4.812 22.53 12.585 30.257l0.002 0.002c7.733 7.796 18.45 12.622 30.295 12.622 11.631 0 22.176-4.654 29.872-12.202l-0.007 0.007z" />
<glyph unicode="&#xe914;" glyph-name="baseball-ball" data-tags="baseball ball" d="M981.333 426.667c-0.198 139.821-61.508 265.284-158.645 351.138l-0.502 0.435h-2.56c-81.824 71.143-189.448 114.507-307.2 114.507s-225.376-43.364-307.773-114.994l0.573 0.487h-2.56c-97.365-86.399-158.415-211.857-158.415-351.573s61.051-265.174 157.931-351.151l0.485-0.422s0 0 0 0c81.723-71.778 189.56-115.573 307.627-115.573s225.904 43.795 308.154 116.026l-0.527-0.454s0 0 2.133 0c98.438 85.967 160.504 211.445 161.279 351.437l0.001 0.137zM896 426.667c-0.177-102.89-40.792-196.26-106.795-265.095l0.129 0.135c-65.654 68.776-106.057 162.149-106.057 264.96s40.404 196.184 106.199 265.109l-0.142-0.149c65.875-68.7 106.49-162.070 106.667-264.925v-0.035zM128 426.667c0.177 102.89 40.792 196.26 106.795 265.095l-0.129-0.135c65.875-68.7 106.49-162.070 106.667-264.925v-0.035c-0.177-102.89-40.792-196.26-106.795-265.095l0.129 0.135c-65.875 68.7-106.49 162.070-106.667 264.925v0.035zM298.667 106.667c78.794 83.35 127.419 195.941 128 319.884v0.116c-0.581 124.059-49.206 236.65-128.208 320.222l0.208-0.222c59.926 40.537 133.807 64.712 213.333 64.712s153.407-24.175 214.693-65.577l-1.359 0.866c-78.071-83.592-126.006-196.198-126.006-320s47.935-236.408 126.257-320.272l-0.251 0.272c-59.926-40.537-133.807-64.712-213.333-64.712s-153.407 24.175-214.693 65.577l1.359-0.866z" />
<glyph unicode="&#xe915;" glyph-name="basketball-ball" data-tags="basketball ball" d="M981.333 426.667c0 0.115 0 0.251 0 0.386 0 130.285-53.378 248.103-139.457 332.779l-0.063 0.062c-84.448 82.212-199.93 132.912-327.253 132.912s-242.805-50.7-327.358-133.014l0.104 0.101c-85.746-85.066-138.828-202.947-138.828-333.227s53.082-248.161 138.797-333.196l0.031-0.030c84.448-82.212 199.93-132.912 327.253-132.912s242.805 50.7 327.358 133.014l-0.104-0.101c86.143 84.737 139.52 202.555 139.52 332.84 0 0.136 0 0.272 0 0.407v-0.021zM810.667 185.6c-44.234 54.465-74.026 122.312-82.606 196.619l-0.167 1.781h165.547c-8.747-76.088-38.539-143.935-83.333-199.111l0.559 0.711zM130.56 384h165.547c-8.747-76.088-38.539-143.935-83.333-199.111l0.559 0.711c-44.234 54.465-74.026 122.312-82.606 196.619l-0.167 1.781zM213.333 667.734c44.234-54.465 74.026-122.312 82.606-196.619l0.167-1.781h-165.547c8.747 76.088 38.539 143.935 83.333 199.111l-0.559-0.711zM893.44 469.334h-165.547c8.747 76.088 38.539 143.935 83.333 199.111l-0.559-0.711c44.234-54.465 74.026-122.312 82.606-196.619l0.167-1.781zM642.133 469.334h-87.467v338.773c74.614-8.625 141.226-37.458 195.773-80.817l-0.786 0.603c-59.37-70.103-98.499-159.059-107.387-256.752l-0.133-1.808zM469.333 469.334h-85.333c-9.667 99.718-49.515 188.65-110.168 259.173l0.515-0.613c53.76 42.755 120.372 71.588 193.198 80.044l1.788 0.169zM384 384h85.333v-338.773c-74.614 8.625-141.226 37.458-195.773 80.817l0.786-0.603c60.139 69.91 99.986 158.842 109.504 256.658l0.15 1.902zM554.667 384h87.467c9.021-99.501 48.15-188.457 108.081-259.24l-0.561 0.68c-53.76-42.755-120.372-71.588-193.198-80.044l-1.788-0.169z" />
<glyph unicode="&#xe916;" glyph-name="basketball-hoop" data-tags="basketball hoop" d="M853.333 768h-682.667c-70.692 0-128-57.308-128-128v0-298.667c0-70.692 57.308-128 128-128v0h128v-85.333c0-23.564 19.103-42.667 42.667-42.667s42.667 19.103 42.667 42.667v0 85.333h85.333v-85.333c0-23.564 19.103-42.667 42.667-42.667s42.667 19.103 42.667 42.667v0 85.333h85.333v-85.333c0-23.564 19.103-42.667 42.667-42.667s42.667 19.103 42.667 42.667v0 85.333h128c70.692 0 128 57.308 128 128v0 298.667c0 70.692-57.308 128-128 128v0zM384 298.667v85.333h85.333v-85.333zM554.667 298.667v85.333h85.333v-85.333zM896 341.334c0-23.564-19.103-42.667-42.667-42.667v0h-128v85.333h42.667c23.564 0 42.667 19.103 42.667 42.667s-19.103 42.667-42.667 42.667v0h-512c-23.564 0-42.667-19.103-42.667-42.667s19.103-42.667 42.667-42.667v0h42.667v-85.333h-128c-23.564 0-42.667 19.103-42.667 42.667v0 298.667c0 23.564 19.103 42.667 42.667 42.667v0h682.667c23.564 0 42.667-19.103 42.667-42.667v0z" />
<glyph unicode="&#xe917;" glyph-name="bowling-ball" data-tags="bowling ball" d="M512 896c-259.206 0-469.333-210.128-469.333-469.333s210.128-469.333 469.333-469.333c259.206 0 469.333 210.128 469.333 469.333v0c0 259.206-210.128 469.333-469.333 469.333v0zM512 42.667c-212.077 0-384 171.923-384 384s171.923 384 384 384c212.077 0 384-171.923 384-384v0c0-212.077-171.923-384-384-384v0zM554.667 640c0-23.564-19.103-42.667-42.667-42.667s-42.667 19.103-42.667 42.667c0 23.564 19.103 42.667 42.667 42.667v0c23.564 0 42.667-19.103 42.667-42.667v0zM682.667 469.334c0-23.564-19.103-42.667-42.667-42.667s-42.667 19.103-42.667 42.667c0 23.564 19.103 42.667 42.667 42.667v0c23.564 0 42.667-19.103 42.667-42.667v0zM426.667 469.334c0-23.564-19.103-42.667-42.667-42.667s-42.667 19.103-42.667 42.667c0 23.564 19.103 42.667 42.667 42.667v0c23.564 0 42.667-19.103 42.667-42.667v0z" />
<glyph unicode="&#xe918;" glyph-name="boxing-glove" data-tags="boxing glove" d="M725.333 682.667h-46.933c-20.544 98.072-106.306 170.667-209.023 170.667-0.015 0-0.031 0-0.046 0h-85.331c-117.821 0-213.333-95.513-213.333-213.333v0-341.333c0.12-45.25 23.702-84.966 59.218-107.639l0.516-0.308c-10.653-17.972-16.981-39.598-17.067-62.696v-42.691c0-70.692 57.308-128 128-128v0h341.333c70.692 0 128 57.308 128 128v0 42.667c-0.086 23.122-6.414 44.748-17.386 63.303l0.319-0.583c36.031 22.981 59.613 62.697 59.733 107.929v256.018c0 70.692-57.308 128-128 128v0zM256 640c0 70.692 57.308 128 128 128v0h85.333c70.692 0 128-57.308 128-128v0-170.667c0-23.564 19.103-42.667 42.667-42.667s42.667 19.103 42.667 42.667v0 128h42.667c23.564 0 42.667-19.103 42.667-42.667v0-256c0-23.564-19.103-42.667-42.667-42.667v0h-426.667c-23.564 0-42.667 19.103-42.667 42.667v0zM725.333 85.334c0-23.564-19.103-42.667-42.667-42.667v0h-341.333c-23.564 0-42.667 19.103-42.667 42.667v0 42.667c0 23.564 19.103 42.667 42.667 42.667v0h341.333c23.564 0 42.667-19.103 42.667-42.667v0z" />
<glyph unicode="&#xe919;" glyph-name="darts" data-tags="darts" d="M896 810.667c-7.712 7.668-18.343 12.407-30.080 12.407s-22.368-4.74-30.082-12.409l-98.131-98.131c-16.136 7.886-35.111 12.497-55.163 12.497-70.692 0-128-57.308-128-128 0-20.052 4.611-39.027 12.83-55.923l-0.334 0.76-123.307-123.307c-5.641 1.329-12.118 2.091-18.773 2.091s-13.132-0.762-19.349-2.203l0.576 0.112-219.307-34.56c-40.492-7.163-70.852-42.084-70.852-84.096 0-23.454 9.462-44.698 24.777-60.123l-0.005 0.005 184.32-183.893c15.081-15.177 35.824-24.712 58.793-25.172l0.087-0.001c9.466 0.022 18.559 1.582 27.055 4.442l-0.602-0.176c30.683 9.762 53.517 35.584 58.811 67.342l0.069 0.498 35.413 220.587c1.017 5.067 1.599 10.892 1.599 16.853s-0.582 11.786-1.693 17.422l0.093-0.568 125.013 125.013c15.446-7.665 33.578-12.34 52.753-12.797l0.154-0.003c35.333 0.032 67.31 14.375 90.452 37.545l0.001 0.001c22.947 23.127 37.128 54.98 37.128 90.146 0 19.958-4.568 38.849-12.714 55.684l0.333-0.763 98.133 97.707c7.924 7.753 12.837 18.556 12.837 30.507s-4.913 22.753-12.83 30.499l-0.008 0.008zM384 116.054l-183.040 182.613 219.307 36.693zM712.96 567.040v0c-7.674-7.457-18.161-12.056-29.722-12.056-9.717 0-18.675 3.248-25.848 8.718l0.104-0.076s0 3.84-2.987 5.12l-5.12 3.413c-5.544 6.851-9.024 15.573-9.384 25.095l-0.002 0.078c0 0.073-0.001 0.16-0.001 0.247 0 11.721 4.726 22.338 12.377 30.049l-0.003-0.003c7.733 7.795 18.45 12.621 30.293 12.621s22.56-4.826 30.291-12.618l0.003-0.003c7.795-7.733 12.621-18.45 12.621-30.293s-4.826-22.56-12.618-30.291l-0.003-0.003z" />
<glyph unicode="&#xe91a;" glyph-name="fencing" data-tags="fencing" d="M182.613 759.467c-6.377 7.412-10.259 17.129-10.259 27.753 0 23.564 19.103 42.667 42.667 42.667 10.624 0 20.341-3.883 27.809-10.307l-0.056 0.047 173.227-172.8c7.558-7.693 12.224-18.249 12.224-29.895 0-23.564-19.103-42.667-42.667-42.667-0.548 0-1.093 0.010-1.636 0.031l0.078-0.002c-0.073 0-0.16-0.001-0.247-0.001-11.721 0-22.338 4.726-30.049 12.377l0.003-0.003zM968.96 241.067l-72.96-73.813 39.253-38.827c7.662-7.715 12.397-18.344 12.397-30.080 0-23.577-19.113-42.691-42.691-42.691-11.842 0-22.557 4.821-30.291 12.608l-38.829 38.829-73.387-73.387c-7.733-7.795-18.45-12.621-30.293-12.621s-22.56 4.826-30.291 12.618l-0.003 0.003-68.267 67.84c-32.777 34.016-52.968 80.357-52.968 131.413 0 104.659 84.843 189.501 189.501 189.501 53.602 0 102.007-22.255 136.477-58.030l0.056-0.059 63.147-63.147c7.648-7.709 12.374-18.326 12.374-30.047 0-0.087 0-0.173-0.001-0.26v0.013c-0.292-11.768-5.306-22.311-13.21-29.851l-0.017-0.016zM804.693 198.4v0l73.813 73.387-33.28 33.28c-19.93 20.87-47.972 33.846-79.046 33.846-21.286 0-41.149-6.089-57.944-16.619l0.456 0.267c-27.978-18.768-46.145-50.274-46.145-86.023 0-28.782 11.776-54.813 30.773-73.538l37.985-37.985zM417.28 335.36c17.553-28.502 27.953-63.037 27.953-100.001 0-54.542-22.642-103.797-59.040-138.876l-0.059-0.057-63.147-62.72c-7.733-7.795-18.45-12.621-30.293-12.621s-22.56 4.826-30.291 12.618l-73.39 73.39-38.827-38.827c-7.877-9.282-19.552-15.134-32.594-15.134-23.564 0-42.667 19.103-42.667 42.667 0 12.829 5.662 24.336 14.624 32.157l0.051 0.043 38.4 39.253-72.96 73.813c-7.668 7.712-12.407 18.343-12.407 30.080s4.74 22.368 12.409 30.082l68.265 68.265c34.086 34.269 81.274 55.477 133.415 55.477 37.235 0 71.943-10.815 101.155-29.476l-0.757 0.452 424.107 423.68c7.872 9.153 19.467 14.914 32.407 14.914 23.564 0 42.667-19.103 42.667-42.667 0-12.94-5.761-24.535-14.858-32.36l-0.056-0.047zM343.467 292.694c-18.989 27.713-50.474 45.66-86.152 45.66-28.865 0-54.985-11.747-73.843-30.721l-37.978-37.978 73.813-73.387 73.387-73.387 32.853 32.853c21.428 19.996 34.786 48.404 34.786 79.931 0 21.626-6.285 41.784-17.128 58.747l0.262-0.439z" />
<glyph unicode="&#xe91b;" glyph-name="flag" data-tags="flag" d="M871.68 512l87.467 175.36c5.622 11.069 8.915 24.137 8.915 37.973 0 47.112-38.179 85.308-85.286 85.333h-322.989c-18.013 49.895-64.811 84.984-119.851 85.333h-341.375c-23.564 0-42.667-19.103-42.667-42.667v0-853.333c0-23.564 19.103-42.667 42.667-42.667s42.667 19.103 42.667 42.667v0 298.667h349.013c18.062-50.028 65.066-85.173 120.3-85.333h272.233c47.109 0.026 85.288 38.221 85.288 85.333 0 13.837-3.293 26.904-9.138 38.461l0.224-0.488zM141.227 810.667h298.667c23.564 0 42.667-19.103 42.667-42.667v0-384h-341.333zM610.56 298.667c-23.564 0-42.667 19.103-42.667 42.667v0 384h314.88l-87.467-175.36c-5.622-11.069-8.915-24.137-8.915-37.973s3.293-26.904 9.138-38.461l-0.224 0.488 87.893-175.36z" />
<glyph unicode="&#xe91c;" glyph-name="football-ball" data-tags="football ball" d="M933.973 505.6v0c-76.8 98.133-233.813 262.4-421.973 262.4s-345.173-164.267-421.973-262.4c-16.98-21.518-27.235-49.028-27.235-78.933s10.256-57.415 27.442-79.205l-0.206 0.271c76.8-98.133 233.813-262.4 421.973-262.4s345.173 164.267 421.973 262.4c16.98 21.518 27.235 49.028 27.235 78.933s-10.256 57.415-27.442 79.205l0.206-0.271zM866.987 400.214c-54.187-69.12-197.12-229.547-354.987-229.547s-298.667 160.427-354.987 229.547c-5.728 7.198-9.19 16.421-9.19 26.453s3.462 19.256 9.257 26.541l-0.067-0.087c56.32 69.12 197.12 229.547 354.987 229.547s300.8-160.427 354.987-229.547c5.728-7.198 9.19-16.421 9.19-26.453s-3.462-19.256-9.257-26.541l0.067 0.087zM725.333 426.667c0-23.564-19.103-42.667-42.667-42.667v0h-42.667v-42.667c0-23.564-19.103-42.667-42.667-42.667s-42.667 19.103-42.667 42.667v0 42.667h-85.333v-42.667c0-23.564-19.103-42.667-42.667-42.667s-42.667 19.103-42.667 42.667v0 42.667h-42.667c-23.564 0-42.667 19.103-42.667 42.667s19.103 42.667 42.667 42.667v0h42.667v42.667c0 23.564 19.103 42.667 42.667 42.667s42.667-19.103 42.667-42.667v0-42.667h85.333v42.667c0 23.564 19.103 42.667 42.667 42.667s42.667-19.103 42.667-42.667v0-42.667h42.667c23.564 0 42.667-19.103 42.667-42.667v0z" />
<glyph unicode="&#xe91d;" glyph-name="medal" data-tags="medal" d="M751.787 640l96.853 193.28c3.153 5.806 5.007 12.714 5.007 20.054 0 23.564-19.103 42.667-42.667 42.667-0.11 0-0.22 0-0.33-0.001h-213.316c-16.512-0.052-30.81-9.474-37.861-23.226l-0.112-0.24-47.36-94.293-47.36 94.293c-7.163 13.992-21.462 23.415-37.966 23.467h-213.34c-23.509-0.073-42.538-19.148-42.538-42.666 0-7.002 1.687-13.61 4.676-19.441l-0.112 0.24 96.853-194.133c-88.228-70.962-144.213-178.908-144.213-299.931 0-212.077 171.923-384 384-384s384 171.923 384 384c0 121.022-55.985 228.968-143.47 299.352l-0.743 0.579zM623.787 810.667h117.76l-62.293-124.16c-29.218 14.513-63.122 25.917-98.721 32.486l-2.399 0.368zM282.453 810.667h117.76l45.653-91.307c-37.998-6.937-71.902-18.34-103.406-33.872l2.286 1.019zM512 42.667c-164.949 0-298.667 133.718-298.667 298.667s133.718 298.667 298.667 298.667c164.949 0 298.667-133.718 298.667-298.667v0c0-164.949-133.718-298.667-298.667-298.667v0zM512 512c-94.257 0-170.667-76.41-170.667-170.667s76.41-170.667 170.667-170.667c94.257 0 170.667 76.41 170.667 170.667v0c0 94.257-76.41 170.667-170.667 170.667v0zM512 256c-47.128 0-85.333 38.205-85.333 85.333s38.205 85.333 85.333 85.333c47.128 0 85.333-38.205 85.333-85.333v0c0-47.128-38.205-85.333-85.333-85.333v0z" />
<glyph unicode="&#xe91e;" glyph-name="scoreboard" data-tags="scoreboard" d="M853.333 768h-682.667c-70.692 0-128-57.308-128-128v0-426.667c0-70.692 57.308-128 128-128v0h682.667c70.692 0 128 57.308 128 128v0 426.667c0 70.692-57.308 128-128 128v0zM896 213.334c0-23.564-19.103-42.667-42.667-42.667v0h-682.667c-23.564 0-42.667 19.103-42.667 42.667v0 426.667c0 23.564 19.103 42.667 42.667 42.667v0h682.667c23.564 0 42.667-19.103 42.667-42.667v0zM554.667 512c0-23.564-19.103-42.667-42.667-42.667s-42.667 19.103-42.667 42.667c0 23.564 19.103 42.667 42.667 42.667v0c23.564 0 42.667-19.103 42.667-42.667v0zM554.667 341.334c0-23.564-19.103-42.667-42.667-42.667s-42.667 19.103-42.667 42.667c0 23.564 19.103 42.667 42.667 42.667v0c23.564 0 42.667-19.103 42.667-42.667v0zM810.667 554.667v-252.16c0-23.564-19.103-42.667-42.667-42.667s-42.667 19.103-42.667 42.667v0 209.493h-42.667c-23.564 0-42.667 19.103-42.667 42.667s19.103 42.667 42.667 42.667v0h85.333c23.564 0 42.667-19.103 42.667-42.667v0zM384 554.667v-252.16c0-23.564-19.103-42.667-42.667-42.667s-42.667 19.103-42.667 42.667v0 209.493h-42.667c-23.564 0-42.667 19.103-42.667 42.667s19.103 42.667 42.667 42.667v0h85.333c23.564 0 42.667-19.103 42.667-42.667v0z" />
<glyph unicode="&#xe91f;" glyph-name="shorts" data-tags="shorts" d="M965.973 104.534l-102.4 682.667c-9.658 61.956-62.634 108.808-126.553 108.808-0.509 0-1.017-0.003-1.524-0.009l0.077 0.001h-448.853c-0.43 0.005-0.938 0.008-1.447 0.008-63.919 0-116.895-46.852-126.46-108.087l-0.093-0.721-102.4-682.667c-0.922-5.773-1.449-12.429-1.449-19.208 0-70.692 57.308-128 128-128 0.51 0 1.019 0.003 1.527 0.009l-0.078-0.001h170.667c61.759 0.030 113.287 43.794 125.297 101.999l0.143 0.828 31.573 148.907 29.867-148.907c12.153-59.033 63.681-102.797 125.437-102.827h170.67c0.431-0.005 0.94-0.008 1.449-0.008 70.692 0 128 57.308 128 128 0 6.779-0.527 13.435-1.542 19.93l0.093-0.721zM286.72 810.667h450.56c0.143 0.002 0.313 0.003 0.482 0.003 21.306 0 38.965-15.617 42.153-36.029l0.031-0.24 19.627-134.4h-575.147l20.053 134.4c3.22 20.651 20.879 36.267 42.184 36.267 0.020 0 0.039 0 0.059 0h-0.003zM872.107 57.6c-7.872-9.165-19.474-14.933-32.424-14.933-0.001 0-0.002 0-0.003 0h-170.666c-0.256-0.006-0.558-0.009-0.86-0.009-20.547 0-37.701 14.523-41.758 33.864l-0.049 0.278-29.013 148.907c-8.184 39.271-42.509 68.352-83.627 68.352s-75.443-29.081-83.53-67.798l-0.097-0.555-29.867-148.907c-4.105-19.619-21.26-34.142-41.806-34.142-0.302 0-0.604 0.003-0.905 0.009l0.045-0.001h-170.667c-0.001 0-0.002 0-0.003 0-12.949 0-24.551 5.769-32.376 14.877l-0.048 0.057c-6.394 7.417-10.288 17.147-10.288 27.786 0 2.24 0.173 4.44 0.505 6.586l-0.031-0.239 68.693 462.933h597.333l69.547-462.933c0.491-2.429 0.772-5.221 0.772-8.079 0-9.854-3.34-18.928-8.951-26.151l0.072 0.097z" />
<glyph unicode="&#xe920;" glyph-name="soccer-field" data-tags="soccer field" d="M853.333 768h-682.667c-70.692 0-128-57.308-128-128v0-426.667c0-70.692 57.308-128 128-128v0h682.667c70.692 0 128 57.308 128 128v0 426.667c0 70.692-57.308 128-128 128v0zM128 512h42.667c23.564 0 42.667-19.103 42.667-42.667v0-85.333c0-23.564-19.103-42.667-42.667-42.667v0h-42.667zM853.333 170.667h-298.667v85.333c0 23.564-19.103 42.667-42.667 42.667s-42.667-19.103-42.667-42.667v0-85.333h-298.667c-23.564 0-42.667 19.103-42.667 42.667v0 42.667h42.667c70.692 0 128 57.308 128 128v0 85.333c0 70.692-57.308 128-128 128v0h-42.667v42.667c0 23.564 19.103 42.667 42.667 42.667v0h298.667v-85.333c0-23.564 19.103-42.667 42.667-42.667s42.667 19.103 42.667 42.667v0 85.333h298.667c23.564 0 42.667-19.103 42.667-42.667v0-42.667h-42.667c-70.692 0-128-57.308-128-128v0-85.333c0-70.692 57.308-128 128-128v0h42.667v-42.667c0-23.564-19.103-42.667-42.667-42.667v0zM896 341.334h-42.667c-23.564 0-42.667 19.103-42.667 42.667v0 85.333c0 23.564 19.103 42.667 42.667 42.667v0h42.667zM554.667 426.667c0-23.564-19.103-42.667-42.667-42.667s-42.667 19.103-42.667 42.667c0 23.564 19.103 42.667 42.667 42.667v0c23.564 0 42.667-19.103 42.667-42.667v0z" />
<glyph unicode="&#xe921;" glyph-name="standings" data-tags="standings" d="M853.333 554.667c-55.254-0.16-102.258-35.305-120.038-84.442l-0.282-0.891h-178.347v85.333c0 70.692-57.308 128-128 128v0h-135.68c-18.103 50.14-65.281 85.333-120.68 85.333-70.692 0-128-57.308-128-128s57.308-128 128-128c55.398 0 102.577 35.193 120.398 84.442l0.282 0.891h135.68c23.564 0 42.667-19.103 42.667-42.667v0-256c0-23.564-19.103-42.667-42.667-42.667v0h-135.68c-18.103 50.14-65.281 85.333-120.68 85.333-70.692 0-128-57.308-128-128s57.308-128 128-128c55.398 0 102.577 35.193 120.398 84.442l0.282 0.891h135.68c70.692 0 128 57.308 128 128v0 85.333h178.347c18.103-50.14 65.281-85.333 120.679-85.333 70.692 0 128 57.308 128 128s-57.308 128-128 128c-0.126 0-0.253 0-0.379-0.001h0.020zM170.667 597.334c-23.564 0-42.667 19.103-42.667 42.667s19.103 42.667 42.667 42.667c23.564 0 42.667-19.103 42.667-42.667v0c0-23.564-19.103-42.667-42.667-42.667v0zM170.667 170.667c-23.564 0-42.667 19.103-42.667 42.667s19.103 42.667 42.667 42.667c23.564 0 42.667-19.103 42.667-42.667v0c0-23.564-19.103-42.667-42.667-42.667v0zM853.333 384c-23.564 0-42.667 19.103-42.667 42.667s19.103 42.667 42.667 42.667c23.564 0 42.667-19.103 42.667-42.667v0c0-23.564-19.103-42.667-42.667-42.667v0z" />
<glyph unicode="&#xe922;" glyph-name="stopwatch" data-tags="stopwatch" d="M512 682.667c-188.513 0-341.333-152.82-341.333-341.333s152.82-341.333 341.333-341.333c188.513 0 341.333 152.82 341.333 341.333v0c0 188.513-152.82 341.333-341.333 341.333v0zM512 85.334c-141.385 0-256 114.615-256 256s114.615 256 256 256c141.385 0 256-114.615 256-256v0c0-141.385-114.615-256-256-256v0zM384 768c0 23.564 19.103 42.667 42.667 42.667v0h170.667c23.564 0 42.667-19.103 42.667-42.667s-19.103-42.667-42.667-42.667v0h-170.667c-23.564 0-42.667 19.103-42.667 42.667v0zM904.96 588.374c-7.733-7.795-18.45-12.621-30.293-12.621s-22.56 4.826-30.291 12.618l-42.67 42.67c-7.753 7.753-12.548 18.463-12.548 30.293 0 23.661 19.181 42.841 42.841 42.841 11.83 0 22.541-4.795 30.293-12.548l42.667-42.667c7.795-7.733 12.621-18.45 12.621-30.293s-4.826-22.56-12.618-30.291l-0.003-0.003zM554.667 512v-170.667c0-23.564-19.103-42.667-42.667-42.667s-42.667 19.103-42.667 42.667v0 170.667c0 23.564 19.103 42.667 42.667 42.667s42.667-19.103 42.667-42.667v0z" />
<glyph unicode="&#xe923;" glyph-name="table-tennis" data-tags="table tennis" d="M853.333 554.667c-0.055 48.588-10.253 94.781-28.591 136.592l0.857-2.192c15.982 21.126 25.6 47.84 25.6 76.8 0 70.692-57.308 128-128 128-28.96 0-55.674-9.618-77.122-25.833l0.322 0.233c-39.631 17.429-85.831 27.574-134.4 27.574-188.457 0-341.243-152.729-341.333-341.166v-0.008c0.12-52.256 12.068-101.693 33.306-145.814l-0.879 2.027s0 0 0-2.133c37.094-77.489 100.209-137.563 177.794-169.834l2.259-0.833v-152.747c0-70.692 57.308-128 128-128s128 57.308 128 128v0 153.173c79.845 33.104 142.96 93.178 179.167 168.617l0.886 2.050v2.133c20.616 41.887 33.1 91.046 34.128 143.013l0.005 0.347zM768 768c0-23.564-19.103-42.667-42.667-42.667s-42.667 19.103-42.667 42.667c0 23.564 19.103 42.667 42.667 42.667v0c23.564 0 42.667-19.103 42.667-42.667v0zM512 810.667c31.713-0.024 62.068-5.811 90.083-16.37l-1.763 0.583c-1.792-8.034-2.874-17.299-2.986-26.797l-0.001-0.083c0-70.692 57.308-128 128-128v0c9.581 0.113 18.846 1.195 27.783 3.153l-0.903-0.166c9.731-25.82 15.365-55.666 15.365-86.827s-5.633-61.007-15.937-88.574l0.572 1.747h-481.28c-9.276 25.41-14.641 54.745-14.641 85.334 0 141.282 114.448 255.833 255.691 256h0.016zM554.667 85.334c0-23.564-19.103-42.667-42.667-42.667s-42.667 19.103-42.667 42.667v0 130.987c12.69-1.762 27.479-2.843 42.493-2.985l0.173-0.001c15.187 0.143 29.977 1.224 44.486 3.188l-1.819-0.201zM512 298.667c-75.513 0.158-143.327 32.985-190.082 85.094l-0.211 0.239h380.587c-46.967-52.348-114.781-85.176-190.265-85.333h-0.028z" />
<glyph unicode="&#xe924;" glyph-name="trophy" data-tags="trophy" d="M853.333 810.667h-50.347c-18.062 50.028-65.066 85.173-120.3 85.333h-341.353c-55.254-0.16-102.258-35.305-120.038-84.442l-0.282-0.891h-50.347c-70.692 0-128-57.308-128-128v0c0-94.257 76.41-170.667 170.667-170.667v0h3.413c19.558-130.875 121.713-233.029 250.946-252.385l1.641-0.202c-0.091-0.513-0.143-1.104-0.143-1.707s0.052-1.194 0.152-1.768l-0.009 0.061v-213.333h-128c-23.564 0-42.667-19.103-42.667-42.667s19.103-42.667 42.667-42.667v0h341.333c23.564 0 42.667 19.103 42.667 42.667s-19.103 42.667-42.667 42.667v0h-128v213.333c0.12 0.448 0.19 0.963 0.19 1.493s-0.069 1.045-0.199 1.535l0.009-0.042c129.181 22.71 229.473 123.578 251.054 251.205l0.253 1.808h4.693c94.257 0 170.667 76.41 170.667 170.667v0c0 70.692-57.308 128-128 128v0zM128 682.667c0 23.564 19.103 42.667 42.667 42.667v0h42.667v-128c-47.128 0-85.333 38.205-85.333 85.333v0zM518.4 341.334c-1.907-0.061-4.15-0.096-6.4-0.096-117.821 0-213.333 95.513-213.333 213.333 0 0.034 0 0.068 0 0.101v-0.005 213.333c0 23.564 19.103 42.667 42.667 42.667v0h341.333c23.564 0 42.667-19.103 42.667-42.667v0-202.667c0.021-1.141 0.033-2.486 0.033-3.834 0-117.035-91.144-212.782-206.323-220.133l-0.644-0.033zM810.667 597.334v128h42.667c23.564 0 42.667-19.103 42.667-42.667v0c0-47.128-38.205-85.333-85.333-85.333v0z" />
<glyph unicode="&#xe925;" glyph-name="t-shirt" data-tags="t-shirt" d="M832 597.334c-11.782 0-21.333 9.551-21.333 21.333v0 170.667c0 58.91-47.756 106.667-106.667 106.667v0h-64c-23.564 0-42.667-19.103-42.667-42.667v0-128c0-47.128-38.205-85.333-85.333-85.333s-85.333 38.205-85.333 85.333v0 128c0 23.564-19.103 42.667-42.667 42.667v0h-64c-58.91 0-106.667-47.756-106.667-106.667v0-170.667c0-11.782-9.551-21.333-21.333-21.333v0c-58.91 0-106.667-47.756-106.667-106.667v0-426.667c0-58.91 47.756-106.667 106.667-106.667v0h640c58.91 0 106.667 47.756 106.667 106.667v0 426.667c0 58.91-47.756 106.667-106.667 106.667v0zM853.333 64c0-11.782-9.551-21.333-21.333-21.333v0h-640c-11.782 0-21.333 9.551-21.333 21.333v0 426.667c0 11.782 9.551 21.333 21.333 21.333v0c58.91 0 106.667 47.756 106.667 106.667v0 170.667c0 11.782 9.551 21.333 21.333 21.333v0h21.333v-85.333c0-94.257 76.41-170.667 170.667-170.667s170.667 76.41 170.667 170.667v0 85.333h21.333c11.782 0 21.333-9.551 21.333-21.333v0-170.667c0-58.91 47.756-106.667 106.667-106.667v0c11.782 0 21.333-9.551 21.333-21.333v0zM554.667 469.334h-85.333c-23.564 0-42.667-19.103-42.667-42.667s19.103-42.667 42.667-42.667v0h42.667v-213.333c0-23.564 19.103-42.667 42.667-42.667v0 0c23.564 0 42.667 19.103 42.667 42.667v0 256c0.003 0.199 0.005 0.434 0.005 0.669 0 11.723-4.728 22.342-12.381 30.054l0.003-0.003c-7.929 7.367-18.577 11.902-30.284 11.947h-0.009z" />
<glyph unicode="&#xe926;" glyph-name="weight" data-tags="weight" d="M783.787 612.267c41.385 21.574 69.227 64.032 69.546 113.023v42.711c0 70.692-57.308 128-128 128v0h-426.667c-70.692 0-128-57.308-128-128v0-42.667c0.32-49.035 28.162-91.492 68.84-112.731l0.707-0.336c-69.336-69.464-112.213-165.36-112.213-271.271 0-212.077 171.923-384 384-384s384 171.923 384 384c0 0.119 0 0.237 0 0.356v-0.018c0 0.215 0.001 0.469 0.001 0.723 0 105.577-42.893 201.135-112.203 270.2l-0.011 0.011zM256 768c0 23.564 19.103 42.667 42.667 42.667v0h426.667c23.564 0 42.667-19.103 42.667-42.667v0-42.667c0-23.564-19.103-42.667-42.667-42.667v0h-38.4c-50.79 26.867-111.020 42.64-174.933 42.64s-124.144-15.772-177.010-43.637l2.077 0.998h-38.4c-23.564 0-42.667 19.103-42.667 42.667v0zM512 42.667c-164.949 0-298.667 133.718-298.667 298.667s133.718 298.667 298.667 298.667c164.949 0 298.667-133.718 298.667-298.667v0c0-164.949-133.718-298.667-298.667-298.667v0z" />
<glyph unicode="&#xe927;" glyph-name="whistle" data-tags="whistle" d="M469.333 426.667c0-47.128-38.205-85.333-85.333-85.333s-85.333 38.205-85.333 85.333c0 47.128 38.205 85.333 85.333 85.333v0c47.128 0 85.333-38.205 85.333-85.333v0zM981.333 640v-170.667c0-70.692-57.308-128-128-128v0h-139.093c-39.2-148.463-172.291-256.142-330.531-256.142-188.513 0-341.333 152.82-341.333 341.333s152.82 341.333 341.333 341.333c71.457 0 137.785-21.957 192.605-59.493l-1.167 0.755c23.083 35.579 62.581 58.803 107.508 58.88h170.679c70.692 0 128-57.308 128-128v0zM896 640c0 23.564-19.103 42.667-42.667 42.667v0h-170.667c-23.564 0-42.667-19.103-42.667-42.667v0-4.693c0-0.077 0.001-0.167 0.001-0.258 0-23.564-19.103-42.667-42.667-42.667-12.059 0-22.949 5.002-30.709 13.045l-0.012 0.013c-46.515 47.517-111.314 76.976-182.993 76.976-141.385 0-256-114.615-256-256s114.615-256 256-256c128.528 0 234.934 94.718 253.223 218.16l0.17 1.398c3.031 20.855 20.789 36.695 42.247 36.695 0.148 0 0.295-0.001 0.442-0.002h173.631c23.564 0 42.667 19.103 42.667 42.667v0z" />
<glyph unicode="&#xe928;" glyph-name="bell-off" data-tags="bell off" d="M395.093 747.094c-0.903 3.277-1.422 7.040-1.422 10.924 0 20.134 13.946 37.011 32.705 41.497l0.29 0.059c11.458 3.168 25.899 6.149 40.613 8.288l2.054 0.245v45.227c0 23.564 19.103 42.667 42.667 42.667s42.667-19.103 42.667-42.667v0-45.653c169.154-21.922 298.504-165.004 298.667-338.329v-85.35c0-23.564-19.103-42.667-42.667-42.667s-42.667 19.103-42.667 42.667v0 85.333c0 141.385-114.615 256-256 256v0c-0.017 0-0.038 0-0.058 0-22.896 0-45.065-3.115-66.105-8.944l1.736 0.41c-3.365-0.954-7.229-1.502-11.222-1.502-19.699 0-36.28 13.35-41.19 31.497l-0.069 0.299zM968.96-30.293c-7.733-7.795-18.45-12.621-30.293-12.621s-22.56 4.826-30.291 12.618l-42.67 42.67c-16.068-7.809-34.953-12.373-54.904-12.373-0.048 0-0.095 0-0.143 0h-225.273c-15.141-25.193-42.326-41.788-73.387-41.788s-58.246 16.595-73.172 41.403l-0.215 0.385h-225.28c-70.692 0-128 57.308-128 128v0c0 0.020 0 0.044 0 0.067 0 55.398 35.193 102.577 84.442 120.398l0.891 0.282v220.587c0.134 68.327 20.323 131.912 54.992 185.214l-0.805-1.321-170.667 170.667c-7.5 7.708-12.125 18.247-12.125 29.867 0 23.663 19.183 42.845 42.845 42.845 12.044 0 22.927-4.969 30.711-12.969l0.009-0.010 853.333-853.333c7.795-7.733 12.621-18.45 12.621-30.293s-4.826-22.56-12.618-30.291l-0.003-0.003zM793.173 85.334l-506.027 505.6c-19.483-35.125-31.006-77.002-31.147-121.557v-256.043c0-23.564-19.103-42.667-42.667-42.667v0c-23.564 0-42.667-19.103-42.667-42.667v0c-0.003-0.192-0.005-0.418-0.005-0.645 0-11.329 4.747-21.548 12.361-28.778l0.017-0.016c7.652-8.018 18.368-13.056 30.262-13.226h0.031z" />
<glyph unicode="&#xe929;" glyph-name="bell" data-tags="bell" d="M853.333 248.747v220.587c-0.162 173.343-129.512 316.425-296.952 338.165l-1.714 0.182v45.653c0 23.564-19.103 42.667-42.667 42.667s-42.667-19.103-42.667-42.667v0-45.653c-169.154-21.922-298.504-165.004-298.667-338.329v-220.604c-50.24-18.049-85.524-65.277-85.524-120.747 0-70.692 57.308-128 128-128 0.067 0 0.134 0 0.201 0h225.269c15.141-25.193 42.326-41.788 73.387-41.788s58.246 16.595 73.172 41.403l0.215 0.385h225.28c0.057 0 0.124 0 0.191 0 70.692 0 128 57.308 128 128 0 55.469-35.284 102.698-84.632 120.466l-0.892 0.281zM810.667 85.334h-597.333c-23.564 0-42.667 19.103-42.667 42.667s19.103 42.667 42.667 42.667v0c23.564 0 42.667 19.103 42.667 42.667v0 256c0 141.385 114.615 256 256 256s256-114.615 256-256v0-256c0-23.564 19.103-42.667 42.667-42.667v0c23.564 0 42.667-19.103 42.667-42.667s-19.103-42.667-42.667-42.667v0z" />
<glyph unicode="&#xe92a;" glyph-name="bookmark-add" data-tags="bookmark add" d="M725.333 896h-426.667c-71.31-2.798-128.058-61.284-128.058-133.024 0-1.384 0.021-2.764 0.063-4.138l-0.005 0.201v-664.747c-0.013-0.71-0.021-1.547-0.021-2.385 0-53.080 30.195-99.107 74.346-121.842l0.768-0.359c15.369-7.718 33.492-12.237 52.669-12.237 28.658 0 54.959 10.091 75.545 26.913l-0.214-0.17 114.347 90.027c6.213 5.141 14.262 8.259 23.040 8.259s16.827-3.118 23.101-8.308l-0.061 0.049 114.347-90.027c20.445-16.563 46.774-26.592 75.445-26.592 19.123 0 37.204 4.461 53.259 12.399l-0.703-0.314c45.851 22.784 76.809 69.299 76.809 123.044 0 0.542-0.003 1.084-0.009 1.625l0.001-0.082v664.747c0.037 1.173 0.058 2.552 0.058 3.936 0 71.74-56.749 130.226-127.805 133.016l-0.253 0.008zM768 94.294c0.037-0.73 0.058-1.586 0.058-2.446 0-19.462-10.769-36.408-26.673-45.206l-0.265-0.135c-4.64-2.472-10.147-3.923-15.994-3.923-8.77 0-16.776 3.266-22.87 8.649l0.037-0.032-114.347 90.027c-20.557 16.737-47.068 26.875-75.947 26.875s-55.389-10.138-76.167-27.049l-114.126-89.853c-6.056-5.35-14.063-8.617-22.833-8.617-5.846 0-11.353 1.452-16.181 4.014l0.187-0.091c-16.169 8.932-26.938 25.879-26.938 45.341 0 0.86 0.021 1.716 0.063 2.566l-0.005-0.12v664.747c-0.112 1.227-0.176 2.654-0.176 4.096 0 24.65 18.665 44.942 42.632 47.512l0.21 0.018h426.667c24.178-2.589 42.843-22.88 42.843-47.53 0-1.442-0.064-2.869-0.189-4.279l0.013 0.182zM640 597.334c0-23.564-19.103-42.667-42.667-42.667v0h-42.667v-42.667c0-23.564-19.103-42.667-42.667-42.667s-42.667 19.103-42.667 42.667v0 42.667h-42.667c-23.564 0-42.667 19.103-42.667 42.667s19.103 42.667 42.667 42.667v0h42.667v42.667c0 23.564 19.103 42.667 42.667 42.667s42.667-19.103 42.667-42.667v0-42.667h42.667c23.564 0 42.667-19.103 42.667-42.667v0z" />
<glyph unicode="&#xe92b;" glyph-name="bookmark-check" data-tags="bookmark check" d="M725.333 896h-426.667c-71.31-2.798-128.058-61.284-128.058-133.024 0-1.384 0.021-2.764 0.063-4.138l-0.005 0.201v-664.747c-0.013-0.71-0.021-1.547-0.021-2.385 0-53.080 30.195-99.107 74.346-121.842l0.768-0.359c15.369-7.718 33.492-12.237 52.669-12.237 28.658 0 54.959 10.091 75.545 26.913l-0.214-0.17 114.347 90.027c6.213 5.141 14.262 8.259 23.040 8.259s16.827-3.118 23.101-8.308l-0.061 0.049 114.347-90.027c20.445-16.563 46.774-26.592 75.445-26.592 19.123 0 37.204 4.461 53.259 12.399l-0.703-0.314c45.851 22.784 76.809 69.299 76.809 123.044 0 0.542-0.003 1.084-0.009 1.625l0.001-0.082v664.747c0.037 1.173 0.058 2.552 0.058 3.936 0 71.74-56.749 130.226-127.805 133.016l-0.253 0.008zM768 94.294c0.037-0.73 0.058-1.586 0.058-2.446 0-19.462-10.769-36.408-26.673-45.206l-0.265-0.135c-4.64-2.472-10.147-3.923-15.994-3.923-8.77 0-16.776 3.266-22.87 8.649l0.037-0.032-114.347 90.027c-20.557 16.737-47.068 26.875-75.947 26.875s-55.389-10.138-76.167-27.049l-114.126-89.853c-6.056-5.35-14.063-8.617-22.833-8.617-5.846 0-11.353 1.452-16.181 4.014l0.187-0.091c-16.169 8.932-26.938 25.879-26.938 45.341 0 0.86 0.021 1.716 0.063 2.566l-0.005-0.12v664.747c-0.112 1.227-0.176 2.654-0.176 4.096 0 24.65 18.665 44.942 42.632 47.512l0.21 0.018h426.667c24.178-2.589 42.843-22.88 42.843-47.53 0-1.442-0.064-2.869-0.189-4.279l0.013 0.182zM651.52 667.734c7.795-7.733 12.621-18.45 12.621-30.293s-4.826-22.56-12.618-30.291l-111.79-111.79c-7.709-7.648-18.326-12.374-30.047-12.374-0.087 0-0.173 0-0.26 0.001h0.013c-0.073 0-0.16-0.001-0.247-0.001-11.721 0-22.338 4.726-30.049 12.377l-55.89 55.89c-7.753 7.753-12.548 18.463-12.548 30.293 0 23.661 19.181 42.841 42.841 42.841 11.83 0 22.541-4.795 30.293-12.548v0l25.6-26.027 81.493 81.92c7.733 7.795 18.45 12.621 30.293 12.621s22.56-4.826 30.291-12.618l0.003-0.003z" />
<glyph unicode="&#xe92c;" glyph-name="bookmark-off" data-tags="bookmark off" d="M256 853.334c0 23.564 19.103 42.667 42.667 42.667v0h426.667c71.31-2.798 128.058-61.284 128.058-133.024 0-1.384-0.021-2.764-0.063-4.138l0.005 0.201v-417.707c0-23.564-19.103-42.667-42.667-42.667s-42.667 19.103-42.667 42.667v0 417.707c0.091 1.113 0.143 2.409 0.143 3.717 0 24.724-18.61 45.101-42.585 47.888l-0.225 0.021h-426.667c-23.564 0-42.667 19.103-42.667 42.667v0zM968.96-30.293c-7.733-7.795-18.45-12.621-30.293-12.621s-22.56 4.826-30.291 12.618l-0.003 0.003-66.56 66.987c-12.993-29.427-35.347-52.746-63.223-66.636l-0.777-0.351c-15.321-7.812-33.415-12.389-52.578-12.389-28.78 0-55.149 10.325-75.605 27.472l0.183-0.149-114.347 89.173c-6.153 5.295-14.22 8.52-23.040 8.52s-16.887-3.224-23.087-8.559l0.047 0.039-114.773-89.6c-20.571-16.709-47.072-26.841-75.938-26.88h-0.009c-0.136-0.001-0.298-0.001-0.46-0.001-19.117 0-37.166 4.572-53.114 12.682l0.667-0.308c-44.895 22.749-75.13 68.554-75.13 121.42 0 1.114 0.013 2.224 0.040 3.331l-0.003-0.164v613.547l-115.627 115.2c-7.753 7.753-12.548 18.463-12.548 30.293 0 23.661 19.181 42.841 42.841 42.841 11.83 0 22.541-4.795 30.293-12.548l853.333-853.333c7.795-7.733 12.621-18.45 12.621-30.293s-4.826-22.56-12.618-30.291l-0.003-0.003zM768 110.507l-512 512v-528.213c-0.038-0.738-0.060-1.603-0.060-2.472 0-19.561 10.969-36.559 27.092-45.18l0.275-0.134c4.563-2.334 9.953-3.702 15.663-3.702 8.702 0 16.662 3.177 22.783 8.434l-0.047-0.039 114.347 90.027c20.584 16.665 47.087 26.754 75.947 26.754s55.363-10.089 76.175-26.932l-0.228 0.179 114.347-89.173c6.033-5.48 14.082-8.835 22.914-8.835 5.651 0 10.982 1.373 15.676 3.804l-0.19-0.090c16.387 8.758 27.348 25.751 27.348 45.305 0 0.723-0.015 1.442-0.045 2.158l0.003-0.102z" />
<glyph unicode="&#xe92d;" glyph-name="bookmark-remove" data-tags="bookmark remove" d="M725.333 896h-426.667c-71.31-2.798-128.058-61.284-128.058-133.024 0-1.384 0.021-2.764 0.063-4.138l-0.005 0.201v-664.747c-0.013-0.71-0.021-1.547-0.021-2.385 0-53.080 30.195-99.107 74.346-121.842l0.768-0.359c15.369-7.718 33.492-12.237 52.669-12.237 28.658 0 54.959 10.091 75.545 26.913l-0.214-0.17 114.347 90.027c6.213 5.141 14.262 8.259 23.040 8.259s16.827-3.118 23.101-8.308l-0.061 0.049 114.347-90.027c20.445-16.563 46.774-26.592 75.445-26.592 19.123 0 37.204 4.461 53.259 12.399l-0.703-0.314c45.851 22.784 76.809 69.299 76.809 123.044 0 0.542-0.003 1.084-0.009 1.625l0.001-0.082v664.747c0.037 1.173 0.058 2.552 0.058 3.936 0 71.74-56.749 130.226-127.805 133.016l-0.253 0.008zM768 94.294c0.037-0.73 0.058-1.586 0.058-2.446 0-19.462-10.769-36.408-26.673-45.206l-0.265-0.135c-4.64-2.472-10.147-3.923-15.994-3.923-8.77 0-16.776 3.266-22.87 8.649l0.037-0.032-114.347 90.027c-20.557 16.737-47.068 26.875-75.947 26.875s-55.389-10.138-76.167-27.049l-114.126-89.853c-6.056-5.35-14.063-8.617-22.833-8.617-5.846 0-11.353 1.452-16.181 4.014l0.187-0.091c-16.169 8.932-26.938 25.879-26.938 45.341 0 0.86 0.021 1.716 0.063 2.566l-0.005-0.12v664.747c-0.112 1.227-0.176 2.654-0.176 4.096 0 24.65 18.665 44.942 42.632 47.512l0.21 0.018h426.667c24.178-2.589 42.843-22.88 42.843-47.53 0-1.442-0.064-2.869-0.189-4.279l0.013 0.182zM602.453 627.627l-30.293-30.293 30.293-30.293c7.668-7.712 12.407-18.343 12.407-30.080s-4.74-22.368-12.409-30.082l0.002 0.002c-7.712-7.668-18.343-12.407-30.080-12.407s-22.368 4.74-30.082 12.409l-30.291 30.291-30.293-30.293c-7.712-7.668-18.343-12.407-30.080-12.407s-22.368 4.74-30.082 12.409l0.002-0.002c-7.668 7.712-12.407 18.343-12.407 30.080s4.74 22.368 12.409 30.082l30.291 30.291-30.293 30.293c-6.377 7.412-10.259 17.129-10.259 27.753 0 23.564 19.103 42.667 42.667 42.667 10.624 0 20.341-3.883 27.809-10.307l-0.056 0.047 30.293-30.293 30.293 30.293c7.412 6.377 17.129 10.259 27.753 10.259 23.564 0 42.667-19.103 42.667-42.667 0-10.624-3.883-20.341-10.307-27.809l0.047 0.056z" />
<glyph unicode="&#xe92e;" glyph-name="bookmark-subtract" data-tags="bookmark subtract" d="M725.333 896h-426.667c-71.31-2.798-128.058-61.284-128.058-133.024 0-1.384 0.021-2.764 0.063-4.138l-0.005 0.201v-664.747c-0.013-0.71-0.021-1.547-0.021-2.385 0-53.080 30.195-99.107 74.346-121.842l0.768-0.359c15.369-7.718 33.492-12.237 52.669-12.237 28.658 0 54.959 10.091 75.545 26.913l-0.214-0.17 114.347 90.027c6.213 5.141 14.262 8.259 23.040 8.259s16.827-3.118 23.101-8.308l-0.061 0.049 114.347-90.027c20.445-16.563 46.774-26.592 75.445-26.592 19.123 0 37.204 4.461 53.259 12.399l-0.703-0.314c45.851 22.784 76.809 69.299 76.809 123.044 0 0.542-0.003 1.084-0.009 1.625l0.001-0.082v664.747c0.037 1.173 0.058 2.552 0.058 3.936 0 71.74-56.749 130.226-127.805 133.016l-0.253 0.008zM768 94.294c0.037-0.73 0.058-1.586 0.058-2.446 0-19.462-10.769-36.408-26.673-45.206l-0.265-0.135c-4.64-2.472-10.147-3.923-15.994-3.923-8.77 0-16.776 3.266-22.87 8.649l0.037-0.032-114.347 90.027c-20.557 16.737-47.068 26.875-75.947 26.875s-55.389-10.138-76.167-27.049l-114.126-89.853c-6.056-5.35-14.063-8.617-22.833-8.617-5.846 0-11.353 1.452-16.181 4.014l0.187-0.091c-16.169 8.932-26.938 25.879-26.938 45.341 0 0.86 0.021 1.716 0.063 2.566l-0.005-0.12v664.747c-0.112 1.227-0.176 2.654-0.176 4.096 0 24.65 18.665 44.942 42.632 47.512l0.21 0.018h426.667c24.178-2.589 42.843-22.88 42.843-47.53 0-1.442-0.064-2.869-0.189-4.279l0.013 0.182zM640 597.334c0-23.564-19.103-42.667-42.667-42.667v0h-170.667c-23.564 0-42.667 19.103-42.667 42.667s19.103 42.667 42.667 42.667v0h170.667c23.564 0 42.667-19.103 42.667-42.667v0z" />
<glyph unicode="&#xe92f;" glyph-name="bookmark" data-tags="bookmark" d="M725.333 896h-426.667c-71.31-2.798-128.058-61.284-128.058-133.024 0-1.384 0.021-2.764 0.063-4.138l-0.005 0.201v-664.747c-0.013-0.71-0.021-1.547-0.021-2.385 0-53.080 30.195-99.107 74.346-121.842l0.768-0.359c15.369-7.718 33.492-12.237 52.669-12.237 28.658 0 54.959 10.091 75.545 26.913l-0.214-0.17 114.347 90.027c6.213 5.141 14.262 8.259 23.040 8.259s16.827-3.118 23.101-8.308l-0.061 0.049 114.347-90.027c20.445-16.563 46.774-26.592 75.445-26.592 19.123 0 37.204 4.461 53.259 12.399l-0.703-0.314c45.851 22.784 76.809 69.299 76.809 123.044 0 0.542-0.003 1.084-0.009 1.625l0.001-0.082v664.747c0.037 1.173 0.058 2.552 0.058 3.936 0 71.74-56.749 130.226-127.805 133.016l-0.253 0.008zM768 94.294c0.037-0.73 0.058-1.586 0.058-2.446 0-19.462-10.769-36.408-26.673-45.206l-0.265-0.135c-4.64-2.472-10.147-3.923-15.994-3.923-8.77 0-16.776 3.266-22.87 8.649l0.037-0.032-114.347 90.027c-20.557 16.737-47.068 26.875-75.947 26.875s-55.389-10.138-76.167-27.049l-114.126-89.853c-6.056-5.35-14.063-8.617-22.833-8.617-5.846 0-11.353 1.452-16.181 4.014l0.187-0.091c-16.169 8.932-26.938 25.879-26.938 45.341 0 0.86 0.021 1.716 0.063 2.566l-0.005-0.12v664.747c-0.112 1.227-0.176 2.654-0.176 4.096 0 24.65 18.665 44.942 42.632 47.512l0.21 0.018h426.667c24.178-2.589 42.843-22.88 42.843-47.53 0-1.442-0.064-2.869-0.189-4.279l0.013 0.182z" />
<glyph unicode="&#xe930;" glyph-name="check-cr-fr" data-tags="check cr-fr" d="M732.16 583.68c7.795-7.733 12.621-18.45 12.621-30.293s-4.826-22.56-12.618-30.291l-253.443-253.443c-7.667-7.606-18.211-12.323-29.857-12.373h-0.010c-0.073 0-0.16-0.001-0.247-0.001-11.721 0-22.338 4.726-30.049 12.377l-127.997 127.997c-7.795 7.733-12.621 18.45-12.621 30.293s4.826 22.56 12.618 30.291l0.003 0.003c7.712 7.668 18.343 12.407 30.080 12.407s22.368-4.74 30.082-12.409l96.851-96.851 223.147 223.573c7.714 7.682 18.354 12.43 30.103 12.43 12.374 0 23.518-5.268 31.311-13.683l0.025-0.028zM981.333 426.667c0-259.206-210.128-469.333-469.333-469.333s-469.333 210.128-469.333 469.333c0 259.206 210.128 469.333 469.333 469.333v0c259.206 0 469.333-210.128 469.333-469.333v0zM896 426.667c0 212.077-171.923 384-384 384s-384-171.923-384-384c0-212.077 171.923-384 384-384v0c212.077 0 384 171.923 384 384v0z" />
<glyph unicode="&#xe931;" glyph-name="check-sq-fr" data-tags="check sq-fr" d="M853.333-42.666h-682.667c-70.692 0-128 57.308-128 128v0 682.667c0 70.692 57.308 128 128 128v0h682.667c70.692 0 128-57.308 128-128v0-682.667c0-70.692-57.308-128-128-128v0zM170.667 810.667c-23.564 0-42.667-19.103-42.667-42.667v0-682.667c0-23.564 19.103-42.667 42.667-42.667v0h682.667c23.564 0 42.667 19.103 42.667 42.667v0 682.667c0 23.564-19.103 42.667-42.667 42.667v0zM478.72 251.734l253.44 253.44c6.377 7.412 10.259 17.129 10.259 27.753 0 23.564-19.103 42.667-42.667 42.667-10.624 0-20.341-3.883-27.809-10.307l0.056 0.047-223.147-224-96.853 97.28c-7.412 6.377-17.129 10.259-27.753 10.259-23.564 0-42.667-19.103-42.667-42.667 0-10.624 3.883-20.341 10.307-27.809l-0.047 0.056 128-128c7.709-7.648 18.326-12.374 30.047-12.374 0.087 0 0.173 0 0.26 0.001h-0.013c11.35 0.763 21.381 5.857 28.561 13.625l0.026 0.029z" />
<glyph unicode="&#xe932;" glyph-name="chevron-down-cr-fr" data-tags="chevron down cr-fr" d="M750.507 352.854c7.795-7.733 12.621-18.45 12.621-30.293s-4.826-22.56-12.618-30.291l-0.003-0.003c-7.709-7.648-18.326-12.374-30.047-12.374-0.087 0-0.173 0-0.26 0.001h0.013c-0.073 0-0.16-0.001-0.247-0.001-11.721 0-22.338 4.726-30.049 12.377l0.003-0.003-177.92 177.067-177.92-177.067c-7.753-7.753-18.463-12.548-30.293-12.548-23.661 0-42.841 19.181-42.841 42.841 0 11.83 4.795 22.541 12.548 30.293l208.213 208.213c7.733 7.795 18.45 12.621 30.293 12.621s22.56-4.826 30.291-12.618l0.003-0.003zM981.333 426.667c0-259.206-210.128-469.333-469.333-469.333s-469.333 210.128-469.333 469.333c0 259.206 210.128 469.333 469.333 469.333v0c259.206 0 469.333-210.128 469.333-469.333v0zM896 426.667c0 212.077-171.923 384-384 384s-384-171.923-384-384c0-212.077 171.923-384 384-384v0c212.077 0 384 171.923 384 384v0z" />
<glyph unicode="&#xe933;" glyph-name="chevron-down-sq-fr" data-tags="chevron down sq-fr" d="M853.333 896h-682.667c-70.692 0-128-57.308-128-128v0-682.667c0-70.692 57.308-128 128-128v0h682.667c70.692 0 128 57.308 128 128v0 682.667c0 70.692-57.308 128-128 128v0zM896 85.334c0-23.564-19.103-42.667-42.667-42.667v0h-682.667c-23.564 0-42.667 19.103-42.667 42.667v0 682.667c0 23.564 19.103 42.667 42.667 42.667v0h682.667c23.564 0 42.667-19.103 42.667-42.667v0zM750.507 561.067c7.795-7.733 12.621-18.45 12.621-30.293s-4.826-22.56-12.618-30.291l-208.216-208.216c-7.733-7.795-18.45-12.621-30.293-12.621s-22.56 4.826-30.291 12.618l-208.216 208.216c-7.753 7.753-12.548 18.463-12.548 30.293 0 23.661 19.181 42.841 42.841 42.841 11.83 0 22.541-4.795 30.293-12.548v0l177.92-177.067 177.92 178.347c7.667 7.421 18.129 11.994 29.659 11.994 12.164 0 23.139-5.090 30.911-13.257l0.017-0.018z" />
<glyph unicode="&#xe934;" glyph-name="chevron-left-cr-fr" data-tags="chevron left cr-fr" d="M646.4 604.587l-177.067-177.92 178.347-177.92c7.795-7.733 12.621-18.45 12.621-30.293s-4.826-22.56-12.618-30.291l-0.003-0.003c-7.733-7.795-18.45-12.621-30.293-12.621s-22.56 4.826-30.291 12.618l-0.003 0.003-209.493 208.213c-7.795 7.733-12.621 18.45-12.621 30.293s4.826 22.56 12.618 30.291l208.216 208.216c7.753 7.753 18.463 12.548 30.293 12.548 23.661 0 42.841-19.181 42.841-42.841 0-11.83-4.795-22.541-12.548-30.293v0zM981.333 426.667c0-259.206-210.128-469.333-469.333-469.333s-469.333 210.128-469.333 469.333c0 259.206 210.128 469.333 469.333 469.333v0c259.206 0 469.333-210.128 469.333-469.333v0zM896 426.667c0 212.077-171.923 384-384 384s-384-171.923-384-384c0-212.077 171.923-384 384-384v0c212.077 0 384 171.923 384 384v0z" />
<glyph unicode="&#xe935;" glyph-name="chevron-left-sq-fr" data-tags="chevron left sq-fr" d="M853.333 896h-682.667c-70.692 0-128-57.308-128-128v0-682.667c0-70.692 57.308-128 128-128v0h682.667c70.692 0 128 57.308 128 128v0 682.667c0 70.692-57.308 128-128 128v0zM896 85.334c0-23.564-19.103-42.667-42.667-42.667v0h-682.667c-23.564 0-42.667 19.103-42.667 42.667v0 682.667c0 23.564 19.103 42.667 42.667 42.667v0h682.667c23.564 0 42.667-19.103 42.667-42.667v0zM646.4 604.587l-177.067-177.92 178.347-177.92c7.795-7.733 12.621-18.45 12.621-30.293s-4.826-22.56-12.618-30.291l-0.003-0.003c-7.733-7.795-18.45-12.621-30.293-12.621s-22.56 4.826-30.291 12.618l-0.003 0.003-209.493 208.213c-7.795 7.733-12.621 18.45-12.621 30.293s4.826 22.56 12.618 30.291l208.216 208.216c7.753 7.753 18.463 12.548 30.293 12.548 23.661 0 42.841-19.181 42.841-42.841 0-11.83-4.795-22.541-12.548-30.293v0z" />
<glyph unicode="&#xe936;" glyph-name="chevron-right-cr-fr" data-tags="chevron right cr-fr" d="M646.4 456.96c7.795-7.733 12.621-18.45 12.621-30.293s-4.826-22.56-12.618-30.291l-208.216-208.216c-7.733-7.795-18.45-12.621-30.293-12.621s-22.56 4.826-30.291 12.618l-0.003 0.003c-7.795 7.733-12.621 18.45-12.621 30.293s4.826 22.56 12.618 30.291l0.003 0.003 177.067 177.92-177.067 177.92c-7.753 7.753-12.548 18.463-12.548 30.293 0 23.661 19.181 42.841 42.841 42.841 11.83 0 22.541-4.795 30.293-12.548v0zM981.333 426.667c0-259.206-210.128-469.333-469.333-469.333s-469.333 210.128-469.333 469.333c0 259.206 210.128 469.333 469.333 469.333v0c259.206 0 469.333-210.128 469.333-469.333v0zM896 426.667c0 212.077-171.923 384-384 384s-384-171.923-384-384c0-212.077 171.923-384 384-384v0c212.077 0 384 171.923 384 384v0z" />
<glyph unicode="&#xe937;" glyph-name="chevron-right-sq-fr" data-tags="chevron right sq-fr" d="M853.333 896h-682.667c-70.692 0-128-57.308-128-128v0-682.667c0-70.692 57.308-128 128-128v0h682.667c70.692 0 128 57.308 128 128v0 682.667c0 70.692-57.308 128-128 128v0zM896 85.334c0-23.564-19.103-42.667-42.667-42.667v0h-682.667c-23.564 0-42.667 19.103-42.667 42.667v0 682.667c0 23.564 19.103 42.667 42.667 42.667v0h682.667c23.564 0 42.667-19.103 42.667-42.667v0zM646.4 456.96c7.795-7.733 12.621-18.45 12.621-30.293s-4.826-22.56-12.618-30.291l-208.216-208.216c-7.733-7.795-18.45-12.621-30.293-12.621s-22.56 4.826-30.291 12.618l-0.003 0.003c-7.795 7.733-12.621 18.45-12.621 30.293s4.826 22.56 12.618 30.291l0.003 0.003 177.067 177.92-177.067 177.92c-7.753 7.753-12.548 18.463-12.548 30.293 0 23.661 19.181 42.841 42.841 42.841 11.83 0 22.541-4.795 30.293-12.548v0z" />
<glyph unicode="&#xe938;" glyph-name="chevron-up-cr-fr" data-tags="chevron up cr-fr" d="M750.507 561.067c7.795-7.733 12.621-18.45 12.621-30.293s-4.826-22.56-12.618-30.291l-208.216-208.216c-7.733-7.795-18.45-12.621-30.293-12.621s-22.56 4.826-30.291 12.618l-208.216 208.216c-7.753 7.753-12.548 18.463-12.548 30.293 0 23.661 19.181 42.841 42.841 42.841 11.83 0 22.541-4.795 30.293-12.548v0l177.92-177.067 177.92 178.347c7.667 7.421 18.129 11.994 29.659 11.994 12.164 0 23.139-5.090 30.911-13.257l0.017-0.018zM981.333 426.667c0-259.206-210.128-469.333-469.333-469.333s-469.333 210.128-469.333 469.333c0 259.206 210.128 469.333 469.333 469.333v0c259.206 0 469.333-210.128 469.333-469.333v0zM896 426.667c0 212.077-171.923 384-384 384s-384-171.923-384-384c0-212.077 171.923-384 384-384v0c212.077 0 384 171.923 384 384v0z" />
<glyph unicode="&#xe939;" glyph-name="chevron-up-sq-fr" data-tags="chevron up sq-fr" d="M853.333 896h-682.667c-70.692 0-128-57.308-128-128v0-682.667c0-70.692 57.308-128 128-128v0h682.667c70.692 0 128 57.308 128 128v0 682.667c0 70.692-57.308 128-128 128v0zM896 85.334c0-23.564-19.103-42.667-42.667-42.667v0h-682.667c-23.564 0-42.667 19.103-42.667 42.667v0 682.667c0 23.564 19.103 42.667 42.667 42.667v0h682.667c23.564 0 42.667-19.103 42.667-42.667v0zM750.507 352.854c7.795-7.733 12.621-18.45 12.621-30.293s-4.826-22.56-12.618-30.291l-0.003-0.003c-7.709-7.648-18.326-12.374-30.047-12.374-0.087 0-0.173 0-0.26 0.001h0.013c-0.073 0-0.16-0.001-0.247-0.001-11.721 0-22.338 4.726-30.049 12.377l0.003-0.003-177.92 177.067-177.92-177.067c-7.753-7.753-18.463-12.548-30.293-12.548-23.661 0-42.841 19.181-42.841 42.841 0 11.83 4.795 22.541 12.548 30.293l208.213 208.213c7.733 7.795 18.45 12.621 30.293 12.621s22.56-4.826 30.291-12.618l0.003-0.003z" />
<glyph unicode="&#xe93a;" glyph-name="edit" data-tags="edit" d="M981.333-0c0-23.564-19.103-42.667-42.667-42.667v0h-853.333c-23.564 0-42.667 19.103-42.667 42.667s19.103 42.667 42.667 42.667v0h853.333c23.564 0 42.667-19.103 42.667-42.667v0zM128 170.667v180.907c0 0.073-0.001 0.16-0.001 0.247 0 11.721 4.726 22.338 12.377 30.049l-0.003-0.003 100.267 99.84s0 0 0 0v0l375.893 375.893c23.158 23.13 55.135 37.434 90.453 37.434s67.296-14.304 90.455-37.435l60.159-60.159c23.13-23.158 37.434-55.135 37.434-90.453s-14.304-67.296-37.435-90.455l0.001 0.001-473.6-476.16c-7.709-7.648-18.326-12.374-30.047-12.374-0.087 0-0.173 0-0.26 0.001h-183.027c-23.564 0-42.667 19.103-42.667 42.667v0zM331.947 452.694l120.747-120.747 238.080 238.080-120.747 120.747zM678.4 799.147l-47.787-47.787 120.747-120.747 47.787 47.787c7.668 7.712 12.407 18.343 12.407 30.080s-4.74 22.368-12.409 30.082l-60.585 60.585c-7.712 7.668-18.343 12.407-30.080 12.407s-22.368-4.74-30.082-12.409l0.002 0.002zM213.333 213.334h120.747l58.027 58.027-120.747 120.747-58.027-58.027z" />
<glyph unicode="&#xe93b;" glyph-name="exclamation-mark-cr-fr" data-tags="exclamation mark cr-fr" d="M554.667 682.667v-298.667c0-23.564-19.103-42.667-42.667-42.667s-42.667 19.103-42.667 42.667v0 298.667c0 23.564 19.103 42.667 42.667 42.667s42.667-19.103 42.667-42.667v0zM512 256c-23.564 0-42.667-19.103-42.667-42.667v0-42.667c0-23.564 19.103-42.667 42.667-42.667s42.667 19.103 42.667 42.667v0 42.667c0 23.564-19.103 42.667-42.667 42.667v0zM981.333 426.667c0-259.206-210.128-469.333-469.333-469.333s-469.333 210.128-469.333 469.333c0 259.206 210.128 469.333 469.333 469.333v0c259.206 0 469.333-210.128 469.333-469.333v0zM896 426.667c0 212.077-171.923 384-384 384s-384-171.923-384-384c0-212.077 171.923-384 384-384v0c212.077 0 384 171.923 384 384v0z" />
<glyph unicode="&#xe93c;" glyph-name="exclamation-mark-sq-fr" data-tags="exclamation mark sq-fr" d="M853.333 896h-682.667c-70.692 0-128-57.308-128-128v0-682.667c0-70.692 57.308-128 128-128v0h682.667c70.692 0 128 57.308 128 128v0 682.667c0 70.692-57.308 128-128 128v0zM896 85.334c0-23.564-19.103-42.667-42.667-42.667v0h-682.667c-23.564 0-42.667 19.103-42.667 42.667v0 682.667c0 23.564 19.103 42.667 42.667 42.667v0h682.667c23.564 0 42.667-19.103 42.667-42.667v0zM554.667 682.667v-298.667c0-23.564-19.103-42.667-42.667-42.667s-42.667 19.103-42.667 42.667v0 298.667c0 23.564 19.103 42.667 42.667 42.667s42.667-19.103 42.667-42.667v0zM554.667 213.334v-42.667c0-23.564-19.103-42.667-42.667-42.667s-42.667 19.103-42.667 42.667v0 42.667c0 23.564 19.103 42.667 42.667 42.667s42.667-19.103 42.667-42.667v0z" />
<glyph unicode="&#xe93d;" glyph-name="export" data-tags="export" d="M981.333 469.334v-307.2c-2.562-66.55-57.131-119.529-124.074-119.529-1.381 0-2.756 0.023-4.126 0.067l0.2-0.005h-682.667c-1.17-0.040-2.546-0.062-3.926-0.062-66.943 0-121.512 52.979-124.066 119.297l-0.007 0.232v307.2c0 23.564 19.103 42.667 42.667 42.667s42.667-19.103 42.667-42.667v0-307.2c2.752-19.466 19.302-34.276 39.31-34.276 1.182 0 2.351 0.052 3.506 0.153l-0.15-0.011h682.667c1.005-0.091 2.175-0.142 3.356-0.142 20.009 0 36.558 14.809 39.286 34.065l0.024 0.211v307.2c0 23.564 19.103 42.667 42.667 42.667s42.667-19.103 42.667-42.667v0zM409.173 604.587l60.16 60.587v-366.507c0-23.564 19.103-42.667 42.667-42.667s42.667 19.103 42.667 42.667v0 366.507l60.16-60.587c7.733-7.795 18.45-12.621 30.293-12.621s22.56 4.826 30.291 12.618l0.003 0.003c7.648 7.709 12.374 18.326 12.374 30.047 0 0.087 0 0.173-0.001 0.26v-0.013c0 0.073 0.001 0.16 0.001 0.247 0 11.721-4.726 22.338-12.377 30.049l-133.117 133.117c-7.064 7.051-16.588 11.639-27.174 12.366l-0.132 0.007h-8.107c-8.917-1.088-16.816-4.78-23.089-10.282l0.049 0.042h-2.133l-133.12-135.253c-7.753-7.753-12.548-18.463-12.548-30.293 0-23.661 19.181-42.841 42.841-42.841 11.83 0 22.541 4.795 30.293 12.548v0z" />
<glyph unicode="&#xe93e;" glyph-name="eye-off" data-tags="eye off" d="M350.293 682.667c-2.052 4.823-3.245 10.433-3.245 16.322 0 17.815 10.918 33.080 26.428 39.468l0.284 0.103c40.733 17.718 88.105 28.45 137.866 29.434l0.374 0.006c188.587 0 345.173-164.693 421.973-262.4 17.082-21.556 27.403-49.146 27.403-79.147s-10.321-57.591-27.607-79.413l0.204 0.267c-2.56-3.84-7.253-8.96-11.947-14.507l-4.693-5.547c-7.827-9.594-19.618-15.696-32.838-15.787h-0.015c-0.176-0.003-0.383-0.004-0.591-0.004-10.080 0-19.291 3.719-26.337 9.859l0.048-0.041c-9.486 7.883-15.48 19.683-15.48 32.884 0 10.21 3.587 19.583 9.568 26.927l-0.061-0.078 4.693 6.4c3.419 3.61 6.64 7.507 9.586 11.614l0.227 0.333c5.728 7.198 9.19 16.421 9.19 26.453s-3.462 19.256-9.257 26.541l0.067-0.087c-53.333 69.547-195.84 230.4-354.133 230.4-38.374-0.669-74.648-8.923-107.625-23.318l1.812 0.705c-4.906-2.131-10.619-3.371-16.623-3.371-17.538 0-32.605 10.582-39.164 25.709l-0.107 0.276zM973.653 103.68c-7.794-11.129-20.548-18.322-34.983-18.347h-0.004c-9.106 0.022-17.538 2.894-24.455 7.77l0.135-0.090-137.813 96.427c-71.048-61.018-162.89-99.649-263.616-104.075l-0.917-0.032c-188.587 0-345.173 164.693-421.973 262.4-17.082 21.556-27.403 49.146-27.403 79.147s10.321 57.591 27.607 79.413l-0.204-0.267c28.665 36.793 58.43 69.534 90.478 99.889l0.402 0.378-119.893 85.333c-7.793 7.733-12.617 18.448-12.617 30.29 0 23.564 19.103 42.667 42.667 42.667 6.763 0 13.159-1.574 18.84-4.374l-0.25 0.111 851.627-596.907c11.886-7.706 19.638-20.907 19.638-35.918 0-8.883-2.715-17.133-7.36-23.964l0.095 0.149zM426.667 426.667c0.122-47.036 38.28-85.118 85.333-85.118 13.005 0 25.33 2.909 36.36 8.112l-0.52-0.221-113.493 77.227h-7.253s-0.427 0-0.427 0zM702.72 241.067l-79.787 57.6c-29.638-25.471-68.479-40.978-110.942-40.978-93.663 0-169.704 75.451-170.658 168.888l-0.001 0.090c0.276 21.519 4.321 42.010 11.501 60.96l-0.408-1.226-99.84 68.267c-34.178-31.648-65.339-65.379-93.732-101.392l-1.415-1.861c-5.525-7.121-8.858-16.185-8.858-26.027s3.332-18.905 8.93-26.124l-0.073 0.097c55.893-67.84 196.267-228.693 354.56-228.693 72.548 3.322 138.448 29.293 191.439 70.945l-0.719-0.545z" />
<glyph unicode="&#xe93f;" glyph-name="eye" data-tags="eye" d="M933.973 505.6c-76.8 98.133-233.813 262.4-421.973 262.4s-345.173-164.267-421.973-262.4c-16.98-21.518-27.235-49.028-27.235-78.933s10.256-57.415 27.442-79.205l-0.206 0.271c76.8-98.133 233.813-262.4 421.973-262.4s345.173 164.267 421.973 262.4c16.98 21.518 27.235 49.028 27.235 78.933s-10.256 57.415-27.442 79.205l0.206-0.271zM866.987 400.214c-54.187-69.12-197.12-229.547-354.987-229.547s-298.667 160.427-354.987 229.547c-5.728 7.198-9.19 16.421-9.19 26.453s3.462 19.256 9.257 26.541l-0.067-0.087c56.32 69.12 197.12 229.547 354.987 229.547s300.8-160.427 354.987-229.547c5.728-7.198 9.19-16.421 9.19-26.453s-3.462-19.256-9.257-26.541l0.067 0.087zM512 597.334c-94.257 0-170.667-76.41-170.667-170.667s76.41-170.667 170.667-170.667c94.257 0 170.667 76.41 170.667 170.667v0c0 94.257-76.41 170.667-170.667 170.667v0zM512 341.334c-47.128 0-85.333 38.205-85.333 85.333v0 3.84c6.234-2.432 13.45-3.841 20.996-3.841 0.119 0 0.237 0 0.355 0.001h-0.018c35.346 0 64 28.654 64 64v0c0.001 0.1 0.001 0.219 0.001 0.337 0 7.546-1.409 14.762-3.979 21.401l0.138-0.405h3.84c47.128 0 85.333-38.205 85.333-85.333s-38.205-85.333-85.333-85.333v0z" />
<glyph unicode="&#xe940;" glyph-name="fie-favourite-in-lc" data-tags="fie favourite in-lc" d="M816.213 737.707l-119.467 120.32c-23.185 23.426-55.334 37.942-90.874 37.973h-307.206c-70.692 0-128-57.308-128-128v0-682.667c0-70.692 57.308-128 128-128v0h426.667c70.692 0 128 57.308 128 128v0 562.347c-0.032 35.121-14.203 66.927-37.128 90.035l0.008-0.008zM750.507 682.667h-67.84c-23.564 0-42.667 19.103-42.667 42.667v0 69.12zM725.333 42.667h-426.667c-23.564 0-42.667 19.103-42.667 42.667v0 682.667c0 23.564 19.103 42.667 42.667 42.667v0h256v-85.333c0-70.692 57.308-128 128-128v0h85.333v-512c0-23.564-19.103-42.667-42.667-42.667v0zM682.667 397.227c1.355-3.981 2.137-8.566 2.137-13.335 0-14.099-6.839-26.601-17.38-34.369l-0.117-0.083-56.32-40.533 21.333-66.133c1.355-3.981 2.137-8.566 2.137-13.335 0-14.099-6.839-26.601-17.38-34.369l-0.117-0.083c-7.030-4.949-15.736-7.962-25.138-8.106h-0.035c-9.43 0.226-18.118 3.225-25.329 8.208l0.155-0.101-55.893 42.667-55.893-42.667c-6.96-5.134-15.707-8.217-25.173-8.217s-18.213 3.083-25.291 8.3l0.117-0.083c-10.659 7.851-17.497 20.353-17.497 34.452 0 4.768 0.782 9.354 2.225 13.635l-0.088-0.301 21.333 66.133-56.32 40.533c-9.489 7.883-15.486 19.685-15.486 32.888 0 5.351 0.985 10.472 2.784 15.191l-0.098-0.293c5.728 17.261 21.727 29.491 40.581 29.491 0.733 0 1.463-0.019 2.187-0.055l-0.102 0.004h69.547l21.333 65.707c5.773 17.184 21.733 29.344 40.533 29.344s34.761-12.16 40.445-29.043l0.088-0.301 21.333-65.707h69.547c16.915-1.975 30.678-13.593 35.755-29.138l0.085-0.302z" />
<glyph unicode="&#xe941;" glyph-name="file-add-in-lc" data-tags="file add in-lc" d="M816.213 737.707l-119.467 120.32c-23.185 23.426-55.334 37.942-90.874 37.973h-307.206c-70.692 0-128-57.308-128-128v0-682.667c0-70.692 57.308-128 128-128v0h426.667c70.692 0 128 57.308 128 128v0 562.347c-0.032 35.121-14.203 66.927-37.128 90.035l0.008-0.008zM750.507 682.667h-67.84c-23.564 0-42.667 19.103-42.667 42.667v0 68.693zM725.333 42.667h-426.667c-23.564 0-42.667 19.103-42.667 42.667v0 682.667c0 23.564 19.103 42.667 42.667 42.667v0h256v-85.333c0-70.692 57.308-128 128-128v0h85.333v-512c0-23.564-19.103-42.667-42.667-42.667v0zM682.667 341.334c0-23.564-19.103-42.667-42.667-42.667v0h-85.333v-85.333c0-23.564-19.103-42.667-42.667-42.667s-42.667 19.103-42.667 42.667v0 85.333h-85.333c-23.564 0-42.667 19.103-42.667 42.667s19.103 42.667 42.667 42.667v0h85.333v85.333c0 23.564 19.103 42.667 42.667 42.667s42.667-19.103 42.667-42.667v0-85.333h85.333c23.564 0 42.667-19.103 42.667-42.667v0z" />
<glyph unicode="&#xe942;" glyph-name="file-add-ou-lc" data-tags="file add ou-lc" d="M554.667 42.667h-298.667c-23.564 0-42.667 19.103-42.667 42.667v0 682.667c0 23.564 19.103 42.667 42.667 42.667v0h256v-85.333c0-70.692 57.308-128 128-128v0h85.333v-213.333c0-23.564 19.103-42.667 42.667-42.667s42.667 19.103 42.667 42.667v0 263.68c-0.152 34.967-14.301 66.599-37.128 89.608l0.008-0.008-119.467 121.173c-23.169 23.197-55.192 37.547-90.566 37.547-0.11 0-0.221 0-0.331 0h-307.183c-70.692 0-128-57.308-128-128v0-682.667c0-70.692 57.308-128 128-128v0h298.667c23.564 0 42.667 19.103 42.667 42.667s-19.103 42.667-42.667 42.667v0zM707.84 682.667h-67.84c-23.564 0-42.667 19.103-42.667 42.667v0 69.12zM938.667 128c0-23.564-19.103-42.667-42.667-42.667v0h-85.333v-85.333c0-23.564-19.103-42.667-42.667-42.667s-42.667 19.103-42.667 42.667v0 85.333h-85.333c-23.564 0-42.667 19.103-42.667 42.667s19.103 42.667 42.667 42.667v0h85.333v85.333c0 23.564 19.103 42.667 42.667 42.667s42.667-19.103 42.667-42.667v0-85.333h85.333c23.564 0 42.667-19.103 42.667-42.667v0z" />
<glyph unicode="&#xe943;" glyph-name="file-check-in-lc" data-tags="file check in-lc" d="M816.213 737.707l-119.467 120.32c-23.185 23.426-55.334 37.942-90.874 37.973h-307.206c-70.692 0-128-57.308-128-128v0-682.667c0-70.692 57.308-128 128-128v0h426.667c70.692 0 128 57.308 128 128v0 562.347c-0.032 35.121-14.203 66.927-37.128 90.035l0.008-0.008zM750.507 682.667h-67.84c-23.564 0-42.667 19.103-42.667 42.667v0 68.693zM725.333 42.667h-426.667c-23.564 0-42.667 19.103-42.667 42.667v0 682.667c0 23.564 19.103 42.667 42.667 42.667v0h256v-85.333c0-70.692 57.308-128 128-128v0h85.333v-512c0-23.564-19.103-42.667-42.667-42.667v0zM632.747 444.16c7.668-7.712 12.407-18.343 12.407-30.080s-4.74-22.368-12.409-30.082l-120.745-120.745c-7.709-7.648-18.326-12.374-30.047-12.374-0.087 0-0.173 0-0.26 0.001h0.013c-11.656 0.051-22.2 4.767-29.869 12.376l-60.584 60.584c-7.668 7.712-12.407 18.343-12.407 30.080s4.74 22.368 12.409 30.082l-0.002-0.002c7.733 7.795 18.45 12.621 30.293 12.621s22.56-4.826 30.291-12.618l0.003-0.003 29.867-30.293 90.453 90.453c7.733 7.795 18.45 12.621 30.293 12.621s22.56-4.826 30.291-12.618l0.003-0.003z" />
<glyph unicode="&#xe944;" glyph-name="file-check-ou-lc" data-tags="file check ou-lc" d="M554.667 42.667h-298.667c-23.564 0-42.667 19.103-42.667 42.667v0 682.667c0 23.564 19.103 42.667 42.667 42.667v0h256v-85.333c0-70.692 57.308-128 128-128v0h85.333v-213.333c0-23.564 19.103-42.667 42.667-42.667s42.667 19.103 42.667 42.667v0 263.68c-0.152 34.967-14.301 66.599-37.128 89.608l0.008-0.008-119.467 121.173c-23.169 23.197-55.192 37.547-90.566 37.547-0.11 0-0.221 0-0.331 0h-307.183c-70.692 0-128-57.308-128-128v0-682.667c0-70.692 57.308-128 128-128v0h298.667c23.564 0 42.667 19.103 42.667 42.667s-19.103 42.667-42.667 42.667v0zM707.84 682.667h-67.84c-23.564 0-42.667 19.103-42.667 42.667v0 69.12zM888.747 170.667l-120.747-120.747c-7.709-7.648-18.326-12.374-30.047-12.374-0.087 0-0.173 0-0.26 0.001h0.013c-11.656 0.051-22.2 4.767-29.869 12.376l-60.584 60.584c-7.668 7.712-12.407 18.343-12.407 30.080s4.74 22.368 12.409 30.082l-0.002-0.002c7.733 7.795 18.45 12.621 30.293 12.621s22.56-4.826 30.291-12.618l0.003-0.003 29.867-30.293 90.453 90.453c7.733 7.795 18.45 12.621 30.293 12.621s22.56-4.826 30.291-12.618l0.003-0.003c7.668-7.712 12.407-18.343 12.407-30.080s-4.74-22.368-12.409-30.082l0.002 0.002z" />
<glyph unicode="&#xe945;" glyph-name="file-download-in-lc" data-tags="file download in-lc" d="M816.213 737.707l-119.467 120.32c-23.185 23.426-55.334 37.942-90.874 37.973h-307.206c-70.692 0-128-57.308-128-128v0-682.667c0-70.692 57.308-128 128-128v0h426.667c70.692 0 128 57.308 128 128v0 562.347c-0.032 35.121-14.203 66.927-37.128 90.035l0.008-0.008zM750.507 682.667h-67.84c-23.564 0-42.667 19.103-42.667 42.667v0 68.693zM725.333 42.667h-426.667c-23.564 0-42.667 19.103-42.667 42.667v0 682.667c0 23.564 19.103 42.667 42.667 42.667v0h256v-85.333c0-70.692 57.308-128 128-128v0h85.333v-512c0-23.564-19.103-42.667-42.667-42.667v0zM634.88 361.387c2.969-5.664 4.711-12.373 4.711-19.489 0-8.615-2.553-16.634-6.944-23.341l0.1 0.163-85.333-128c-7.529-11.912-20.523-19.775-35.373-20.053l-0.041-0.001c-0.019 0-0.042 0-0.064 0-14.648 0-27.571 7.381-35.254 18.627l-0.095 0.147-85.333 128c-4.291 6.544-6.844 14.563-6.844 23.178 0 7.116 1.742 13.825 4.823 19.724l-0.112-0.236c6.99 14.042 21.118 23.587 37.506 23.893l0.040 0.001h42.667v128c0 23.564 19.103 42.667 42.667 42.667s42.667-19.103 42.667-42.667v0-128h42.667c16.18-0.045 30.237-9.088 37.435-22.388l0.112-0.226z" />
<glyph unicode="&#xe946;" glyph-name="file-download-ou-lc" data-tags="file download ou-lc" d="M640 597.334h85.333v-213.333c0-23.564 19.103-42.667 42.667-42.667s42.667 19.103 42.667 42.667v0 263.68c-0.152 34.967-14.301 66.599-37.128 89.608l0.008-0.008-119.467 121.173c-23.169 23.197-55.192 37.547-90.566 37.547-0.11 0-0.221 0-0.331 0h-307.183c-70.692 0-128-57.308-128-128v0-682.667c0-70.692 57.308-128 128-128v0h298.667c23.564 0 42.667 19.103 42.667 42.667s-19.103 42.667-42.667 42.667v0h-298.667c-23.564 0-42.667 19.103-42.667 42.667v0 682.667c0 23.564 19.103 42.667 42.667 42.667v0h256v-85.333c0-70.692 57.308-128 128-128v0zM707.84 682.667h-67.84c-23.564 0-42.667 19.103-42.667 42.667v0 69.12zM883.2 54.614l-88.32-85.333c-7.622-7.354-17.995-11.9-29.431-11.947h-0.009c-11.712 0.172-22.255 5.037-29.86 12.793l-0.007 0.007-82.773 85.333c-7.544 7.69-12.201 18.237-12.201 29.871 0 23.353 18.762 42.325 42.036 42.662h42.699v85.333c0 23.564 19.103 42.667 42.667 42.667s42.667-19.103 42.667-42.667v0-85.333h42.667c0.077 0 0.167 0.001 0.258 0.001 23.564 0 42.667-19.103 42.667-42.667 0-12.059-5.002-22.949-13.045-30.709l-0.013-0.012z" />
<glyph unicode="&#xe947;" glyph-name="file-edit-in-lc" data-tags="file edit in-lc" d="M816.213 737.707l-119.467 120.32c-23.185 23.426-55.334 37.942-90.874 37.973h-307.206c-70.692 0-128-57.308-128-128v0-682.667c0-70.692 57.308-128 128-128v0h426.667c70.692 0 128 57.308 128 128v0 562.347c-0.032 35.121-14.203 66.927-37.128 90.035l0.008-0.008zM750.507 682.667h-67.84c-23.564 0-42.667 19.103-42.667 42.667v0 68.693zM725.333 42.667h-426.667c-23.564 0-42.667 19.103-42.667 42.667v0 682.667c0 23.564 19.103 42.667 42.667 42.667v0h256v-85.333c0-70.692 57.308-128 128-128v0h85.333v-512c0-23.564-19.103-42.667-42.667-42.667v0zM692.907 419.414c7.795-7.733 12.621-18.45 12.621-30.293s-4.826-22.56-12.618-30.291l-180.91-180.91c-4.552-4.528-10.124-8.037-16.339-10.151l-0.301-0.089-90.453-30.293c-2.051-0.293-4.419-0.461-6.827-0.461s-4.776 0.168-7.094 0.492l0.268-0.031c-0.033 0-0.071 0-0.11 0-23.564 0-42.667 19.103-42.667 42.667 0 4.886 0.821 9.581 2.334 13.953l-0.090-0.3 30.293 90.453c2.477 5.69 5.938 10.518 10.213 14.482l0.027 0.025 180.907 180.907c7.733 7.795 18.45 12.621 30.293 12.621s22.56-4.826 30.291-12.618l0.003-0.003z" />
<glyph unicode="&#xe948;" glyph-name="file-edit-ou-lc" data-tags="file edit ou-lc" d="M951.467 215.894l-180.907-180.907c-4.596-4.455-10.151-7.95-16.324-10.142l-0.316-0.098-90.88-30.293c-3.635-1.36-7.835-2.147-12.22-2.147-0.354 0-0.707 0.005-1.059 0.015l0.052-0.001c-0.073 0-0.16-0.001-0.247-0.001-11.721 0-22.338 4.726-30.049 12.377l0.003-0.003c-7.546 7.69-12.203 18.238-12.203 29.873 0 4.568 0.718 8.969 2.047 13.095l-0.084-0.302 30.72 91.733c2.29 6.489 5.785 12.044 10.251 16.652l-0.011-0.012 180.907 180.907c7.712 7.668 18.343 12.407 30.080 12.407s22.368-4.74 30.082-12.409l60.585-60.585c7.541-7.69 12.195-18.234 12.195-29.865 0-11.844-4.826-22.561-12.619-30.292l-0.003-0.003zM444.16 725.334v85.333h-256c-23.564 0-42.667-19.103-42.667-42.667v0-682.667c0-23.564 19.103-42.667 42.667-42.667v0h298.667c23.564 0 42.667-19.103 42.667-42.667s-19.103-42.667-42.667-42.667v0h-298.667c-70.692 0-128 57.308-128 128v0 682.667c0 70.692 57.308 128 128 128v0h307.2c0.093 0 0.203 0 0.314 0 35.374 0 67.397-14.35 90.565-37.546l0.001-0.001 119.467-121.173c22.819-23.001 36.968-54.634 37.12-89.571v-263.709c0-23.564-19.103-42.667-42.667-42.667s-42.667 19.103-42.667 42.667v0 213.333h-85.333c-70.692 0-128 57.308-128 128v0zM529.493 794.454v-69.12c0-23.564 19.103-42.667 42.667-42.667v0h67.84z" />
<glyph unicode="&#xe949;" glyph-name="file-export-in-lc" data-tags="file export in-lc" d="M816.213 737.707l-119.467 120.32c-23.185 23.426-55.334 37.942-90.874 37.973h-307.206c-70.692 0-128-57.308-128-128v0-682.667c0-70.692 57.308-128 128-128v0h426.667c70.692 0 128 57.308 128 128v0 562.347c-0.032 35.121-14.203 66.927-37.128 90.035l0.008-0.008zM750.507 682.667h-67.84c-23.564 0-42.667 19.103-42.667 42.667v0 68.693zM725.333 42.667h-426.667c-23.564 0-42.667 19.103-42.667 42.667v0 682.667c0 23.564 19.103 42.667 42.667 42.667v0h256v-85.333c0-70.692 57.308-128 128-128v0h85.333v-512c0-23.564-19.103-42.667-42.667-42.667v0zM704 362.667c-0.079-14.744-7.624-27.709-19.044-35.315l-0.156-0.098-128-85.333c-6.411-4.539-14.392-7.256-23.008-7.256-0.161 0-0.322 0.001-0.483 0.003h0.025c-0.063 0-0.138-0.001-0.213-0.001-7.425 0-14.407 1.897-20.488 5.232l0.222-0.111c-13.321 7.394-22.187 21.377-22.187 37.43 0 0.041 0 0.082 0 0.123v-0.006 42.667h-128c-23.564 0-42.667 19.103-42.667 42.667s19.103 42.667 42.667 42.667v0h128v42.667c0 0.035 0 0.076 0 0.116 0 16.054 8.866 30.037 21.969 37.319l0.218 0.111c5.664 2.969 12.373 4.711 19.489 4.711 8.615 0 16.634-2.553 23.341-6.944l-0.163 0.1 128-85.333c12.080-7.439 20.104-20.449 20.479-35.36l0.001-0.054z" />
<glyph unicode="&#xe94a;" glyph-name="file-export-ou-lc" data-tags="file export ou-lc" d="M512 42.667h-298.667c-23.564 0-42.667 19.103-42.667 42.667v0 682.667c0 23.564 19.103 42.667 42.667 42.667v0h256v-85.333c0-70.692 57.308-128 128-128v0h85.333v-213.333c0-23.564 19.103-42.667 42.667-42.667s42.667 19.103 42.667 42.667v0 263.68c-0.152 34.967-14.301 66.599-37.128 89.608l0.008-0.008-119.467 121.173c-23.169 23.197-55.192 37.547-90.566 37.547-0.11 0-0.221 0-0.331 0h-307.183c-70.692 0-128-57.308-128-128v0-682.667c0-70.692 57.308-128 128-128v0h298.667c23.564 0 42.667 19.103 42.667 42.667s-19.103 42.667-42.667 42.667v0zM665.173 682.667h-67.84c-23.564 0-42.667 19.103-42.667 42.667v0 69.12zM938.667 128c0-23.564-19.103-42.667-42.667-42.667v0h-128v-42.667c0-0.077 0.001-0.167 0.001-0.258 0-23.564-19.103-42.667-42.667-42.667-12.059 0-22.949 5.002-30.709 13.045l-0.012 0.013-85.333 88.32c-7.395 7.662-11.952 18.106-11.952 29.615 0 0.238 0.002 0.476 0.006 0.714v-0.036c0.172 11.712 5.037 22.255 12.793 29.86l0.007 0.007 85.333 82.773c7.69 7.542 18.235 12.197 29.867 12.197 23.564 0 42.667-19.103 42.667-42.667 0-0.088 0-0.176-0.001-0.264v0.013-42.667h128c23.564 0 42.667-19.103 42.667-42.667v0z" />
<glyph unicode="&#xe94b;" glyph-name="file-favourite-ou-lc" data-tags="file favourite ou-lc" d="M512 42.667h-298.667c-23.564 0-42.667 19.103-42.667 42.667v0 682.667c0 23.564 19.103 42.667 42.667 42.667v0h256v-85.333c0-70.692 57.308-128 128-128v0h85.333v-213.333c0-23.564 19.103-42.667 42.667-42.667s42.667 19.103 42.667 42.667v0 263.68c-0.152 34.967-14.301 66.599-37.128 89.608l0.008-0.008-119.467 121.173c-23.169 23.197-55.192 37.547-90.566 37.547-0.11 0-0.221 0-0.331 0h-307.183c-70.692 0-128-57.308-128-128v0-682.667c0-70.692 57.308-128 128-128v0h298.667c23.564 0 42.667 19.103 42.667 42.667s-19.103 42.667-42.667 42.667v0zM554.667 794.454l110.507-111.787h-67.84c-23.564 0-42.667 19.103-42.667 42.667v0zM881.92 136.107l-56.32-42.667 21.333-66.133c1.355-3.981 2.137-8.566 2.137-13.335 0-14.099-6.839-26.601-17.38-34.369l-0.117-0.083c-7.030-4.949-15.736-7.962-25.138-8.106h-0.035c-9.43 0.226-18.118 3.225-25.329 8.208l0.155-0.101-55.893 42.667-55.893-42.667c-6.96-5.134-15.707-8.217-25.173-8.217s-18.213 3.083-25.291 8.3l0.117-0.083c-10.659 7.851-17.497 20.353-17.497 34.452 0 4.768 0.782 9.354 2.225 13.635l-0.088-0.301 21.333 66.133-56.32 42.667c-10.068 7.88-16.478 20.034-16.478 33.684 0 5.054 0.879 9.902 2.491 14.401l-0.093-0.298c5.741 17.225 21.71 29.426 40.532 29.44h69.548l21.333 65.707c5.773 17.184 21.733 29.344 40.533 29.344s34.761-12.16 40.445-29.043l0.088-0.301 21.333-65.707h69.547c0.623 0.032 1.352 0.051 2.085 0.051 18.855 0 34.853-12.23 40.495-29.19l0.087-0.301c0.99-3.427 1.56-7.363 1.56-11.432 0-15.3-8.053-28.719-20.152-36.25l-0.181-0.105z" />
<glyph unicode="&#xe94c;" glyph-name="file-import-in-lc" data-tags="file import in-lc" d="M816.213 737.707l-119.467 120.32c-23.185 23.426-55.334 37.942-90.874 37.973h-307.206c-70.692 0-128-57.308-128-128v0-682.667c0-70.692 57.308-128 128-128v0h426.667c70.692 0 128 57.308 128 128v0 562.347c-0.032 35.121-14.203 66.927-37.128 90.035l0.008-0.008zM750.507 682.667h-67.84c-23.564 0-42.667 19.103-42.667 42.667v0 68.693zM725.333 42.667h-426.667c-23.564 0-42.667 19.103-42.667 42.667v0 682.667c0 23.564 19.103 42.667 42.667 42.667v0h256v-85.333c0-70.692 57.308-128 128-128v0h85.333v-512c0-23.564-19.103-42.667-42.667-42.667v0zM704 362.667c0-23.564-19.103-42.667-42.667-42.667v0h-128v-42.667c0-23.564-19.103-42.667-42.667-42.667v0c-0.028 0-0.062 0-0.095 0-8.876 0-17.119 2.71-23.947 7.349l0.149-0.095-128 85.333c-11.447 7.771-18.869 20.725-18.869 35.413s7.422 27.643 18.72 35.318l0.149 0.095 128 85.333c6.544 4.291 14.563 6.844 23.178 6.844 7.116 0 13.825-1.742 19.724-4.823l-0.236 0.112c13.525-7.309 22.569-21.367 22.613-37.541v-42.673h128c0.381 0.012 0.83 0.019 1.28 0.019 23.564 0 42.667-19.103 42.667-42.667 0-0.007 0-0.014 0-0.020v0.001z" />
</font>
</defs>
</svg>
