<svg width="180" height="180" viewBox="0 0 180 180" fill="none" xmlns="http://www.w3.org/2000/svg">
<path d="M85 2.88675C88.094 1.10042 91.906 1.10042 95 2.88675L162.942 42.1132C166.036 43.8996 167.942 47.2008 167.942 50.7735V129.227C167.942 132.799 166.036 136.1 162.942 137.887L95 177.113C91.906 178.9 88.094 178.9 85 177.113L17.0577 137.887C13.9637 136.1 12.0577 132.799 12.0577 129.226V50.7735C12.0577 47.2008 13.9637 43.8996 17.0577 42.1132L85 2.88675Z" fill="#0F58EB"/>
<path d="M118.078 138.791L91.0352 123.178L91.3516 154.469L118.078 138.791Z" fill="white"/>
<path d="M141.677 59.0929L90.6164 29.613L38.8447 59.7278C37.2889 60.6328 36.3395 62.3041 36.359 64.1038L36.7039 96.0521L90.1564 64.6973L144.242 95.9233L144.177 63.4131C144.174 61.6303 143.221 59.9843 141.677 59.0929Z" fill="white"/>
<path d="M127.647 99.068L91.1115 77.9744L53.7115 100.019C52.1869 100.918 51.2509 102.555 51.2504 104.325L51.2416 132.756L90.4889 109.43L129.932 132.202L130.146 103.435C130.16 101.636 129.205 99.9678 127.647 99.068Z" fill="white"/>
</svg>
