<svg xmlns="http://www.w3.org/2000/svg" viewBox="0 0 24 24"><defs><style>.cls-1{fill:#231f20;}</style></defs><g id="Layer_9" data-name="Layer 9"><path class="cls-1" d="M19,2H5A3,3,0,0,0,2,5V19a3,3,0,0,0,3,3H19a3,3,0,0,0,3-3V5A3,3,0,0,0,19,2Zm1,17a1,1,0,0,1-1,1H5a1,1,0,0,1-1-1V5A1,1,0,0,1,5,4H19a1,1,0,0,1,1,1ZM8,11v6a1,1,0,0,1-2,0V11a1,1,0,0,1,2,0ZM8,7A1,1,0,1,1,7,6,1,1,0,0,1,8,7Zm10,7v3a1,1,0,0,1-2,0V14a2,2,0,0,0-4,0v3a1,1,0,0,1-2,0V11a1,1,0,0,1,1-1,1,1,0,0,1,.92.6A4,4,0,0,1,14,10,4,4,0,0,1,18,14Z"/></g></svg>