<svg width="751" height="180" viewBox="0 0 751 180" fill="none" xmlns="http://www.w3.org/2000/svg">
<path d="M88 2.88675C91.094 1.10042 94.906 1.10042 98 2.88675L165.942 42.1132C169.036 43.8996 170.942 47.2008 170.942 50.7735V129.227C170.942 132.799 169.036 136.1 165.942 137.887L98 177.113C94.906 178.9 91.094 178.9 88 177.113L20.0577 137.887C16.9637 136.1 15.0577 132.799 15.0577 129.226V50.7735C15.0577 47.2008 16.9637 43.8996 20.0577 42.1132L88 2.88675Z" fill="#0F58EB"/>
<path d="M121.078 138.791L94.0352 123.178L94.3516 154.469L121.078 138.791Z" fill="white"/>
<path d="M144.677 59.0929L93.6164 29.613L41.8447 59.7278C40.2889 60.6328 39.3395 62.3041 39.359 64.1038L39.7039 96.0521L93.1564 64.6972L147.242 95.9233L147.177 63.4131C147.174 61.6303 146.221 59.9843 144.677 59.0929Z" fill="white"/>
<path d="M130.647 99.068L94.1115 77.9744L56.7115 100.019C55.1869 100.918 54.2509 102.555 54.2504 104.325L54.2416 132.756L93.4889 109.43L132.932 132.202L133.146 103.435C133.16 101.636 132.205 99.9678 130.647 99.068Z" fill="white"/>
<path d="M259.779 52.2942V126.454H244.55V52.2942H259.779ZM282.598 52.2942V64.2637H222.088V52.2942H282.598ZM310.968 127.473C306.689 127.473 302.852 126.793 299.457 125.435C296.061 124.043 293.175 122.124 290.798 119.68C288.455 117.235 286.655 114.4 285.399 111.174C284.143 107.914 283.514 104.45 283.514 100.783V98.7459C283.514 94.5693 284.109 90.7493 285.297 87.2858C286.486 83.8223 288.183 80.8172 290.391 78.2705C292.632 75.7238 295.348 73.7713 298.54 72.4131C301.732 71.0209 305.331 70.3248 309.338 70.3248C313.243 70.3248 316.706 70.97 319.728 72.2603C322.75 73.5506 325.28 75.3842 327.318 77.7611C329.389 80.1381 330.951 82.9903 332.003 86.318C333.056 89.6117 333.582 93.279 333.582 97.3197V103.432H289.779V93.6525H319.168V92.5319C319.168 90.4946 318.795 88.678 318.048 87.082C317.335 85.4521 316.248 84.1618 314.788 83.2111C313.328 82.2603 311.46 81.7849 309.185 81.7849C307.25 81.7849 305.586 82.2094 304.194 83.0583C302.801 83.9072 301.664 85.0956 300.781 86.6236C299.932 88.1516 299.287 89.9513 298.846 92.0226C298.438 94.06 298.234 96.301 298.234 98.7459V100.783C298.234 102.99 298.54 105.028 299.151 106.895C299.796 108.763 300.696 110.376 301.851 111.734C303.039 113.092 304.465 114.145 306.129 114.892C307.827 115.639 309.745 116.012 311.885 116.012C314.533 116.012 316.995 115.503 319.27 114.484C321.579 113.432 323.565 111.853 325.229 109.748L332.36 117.49C331.205 119.153 329.627 120.749 327.623 122.277C325.654 123.805 323.277 125.062 320.492 126.046C317.708 126.997 314.533 127.473 310.968 127.473ZM356.604 83.3639V126.454H341.936V71.3435H355.739L356.604 83.3639ZM373.209 70.9869L372.954 84.5863C372.241 84.4844 371.375 84.3995 370.357 84.3316C369.372 84.2297 368.472 84.1788 367.657 84.1788C365.586 84.1788 363.786 84.4504 362.258 84.9937C360.764 85.5031 359.508 86.2671 358.489 87.2858C357.504 88.3044 356.757 89.5438 356.248 91.0039C355.773 92.464 355.501 94.1279 355.433 95.9954L352.479 95.0786C352.479 91.5133 352.835 88.2365 353.548 85.2484C354.262 82.2263 355.297 79.5948 356.655 77.3537C358.048 75.1126 359.745 73.3808 361.749 72.1584C363.752 70.936 366.044 70.3248 368.625 70.3248C369.44 70.3248 370.272 70.3927 371.121 70.5285C371.969 70.6304 372.666 70.7832 373.209 70.9869ZM394.805 82.7527V126.454H380.085V71.3435H393.888L394.805 82.7527ZM392.767 96.9632H388.693C388.693 93.1262 389.151 89.5948 390.068 86.369C391.019 83.1092 392.394 80.2909 394.194 77.9139C396.027 75.5031 398.285 73.6355 400.968 72.3112C403.65 70.9869 406.757 70.3248 410.289 70.3248C412.734 70.3248 414.975 70.6983 417.012 71.4453C419.049 72.1584 420.798 73.2959 422.258 74.8579C423.752 76.3859 424.907 78.3893 425.722 80.8681C426.537 83.3129 426.944 86.2501 426.944 89.6797V126.454H412.275V91.3095C412.275 88.7968 411.936 86.8613 411.256 85.5031C410.577 84.1448 409.61 83.1941 408.353 82.6508C407.131 82.1075 405.654 81.8358 403.922 81.8358C402.02 81.8358 400.357 82.2263 398.93 83.0073C397.538 83.7883 396.384 84.8749 395.467 86.2671C394.55 87.6253 393.871 89.2212 393.43 91.0549C392.988 92.8885 392.767 94.8579 392.767 96.9632ZM425.569 95.2824L420.323 95.9445C420.323 92.3452 420.764 89.0005 421.647 85.9105C422.564 82.8206 423.905 80.1041 425.671 77.7611C427.47 75.4182 429.694 73.6015 432.343 72.3112C434.992 70.9869 438.048 70.3248 441.511 70.3248C444.16 70.3248 446.571 70.7153 448.744 71.4963C450.917 72.2433 452.767 73.4487 454.295 75.1126C455.857 76.7425 457.046 78.8817 457.861 81.5302C458.71 84.1788 459.134 87.4216 459.134 91.2586V126.454H444.414V91.2586C444.414 88.7119 444.075 86.7764 443.396 85.4521C442.75 84.0939 441.8 83.1601 440.543 82.6508C439.321 82.1075 437.861 81.8358 436.163 81.8358C434.397 81.8358 432.852 82.1924 431.528 82.9055C430.204 83.5846 429.1 84.5353 428.217 85.7577C427.335 86.9802 426.672 88.4063 426.231 90.0362C425.79 91.6321 425.569 93.3808 425.569 95.2824ZM485.976 71.3435V126.454H471.256V71.3435H485.976ZM470.34 56.9801C470.34 54.8409 471.087 53.0752 472.581 51.683C474.075 50.2908 476.078 49.5947 478.591 49.5947C481.07 49.5947 483.056 50.2908 484.55 51.683C486.078 53.0752 486.842 54.8409 486.842 56.9801C486.842 59.1194 486.078 60.8851 484.55 62.2773C483.056 63.6695 481.07 64.3655 478.591 64.3655C476.078 64.3655 474.075 63.6695 472.581 62.2773C471.087 60.8851 470.34 59.1194 470.34 56.9801ZM520.866 116.012C522.666 116.012 524.262 115.673 525.654 114.994C527.046 114.281 528.133 113.296 528.914 112.04C529.728 110.749 530.153 109.238 530.187 107.506H543.99C543.956 111.377 542.92 114.824 540.883 117.846C538.846 120.834 536.112 123.194 532.683 124.926C529.253 126.624 525.416 127.473 521.172 127.473C516.893 127.473 513.158 126.759 509.966 125.333C506.808 123.907 504.177 121.938 502.071 119.425C499.966 116.878 498.387 113.924 497.335 110.563C496.282 107.167 495.756 103.534 495.756 99.6627V98.1856C495.756 94.2807 496.282 90.6474 497.335 87.2858C498.387 83.8902 499.966 80.936 502.071 78.4233C504.177 75.8766 506.808 73.8902 509.966 72.464C513.124 71.0379 516.825 70.3248 521.07 70.3248C525.586 70.3248 529.542 71.1907 532.937 72.9224C536.367 74.6542 539.049 77.133 540.985 80.3588C542.954 83.5506 543.956 87.3367 543.99 91.717H530.187C530.153 89.8834 529.762 88.2195 529.015 86.7255C528.302 85.2314 527.25 84.043 525.857 83.1601C524.499 82.2433 522.818 81.7849 520.815 81.7849C518.676 81.7849 516.927 82.2433 515.569 83.1601C514.211 84.043 513.158 85.2654 512.411 86.8274C511.664 88.3554 511.138 90.1041 510.832 92.0735C510.56 94.009 510.425 96.0464 510.425 98.1856V99.6627C510.425 101.802 510.56 103.856 510.832 105.826C511.104 107.795 511.613 109.544 512.36 111.072C513.141 112.6 514.211 113.805 515.569 114.688C516.927 115.571 518.693 116.012 520.866 116.012ZM550.153 99.4589V98.3893C550.153 94.3486 550.73 90.6304 551.885 87.2348C553.039 83.8053 554.72 80.8341 556.927 78.3214C559.134 75.8087 561.851 73.8562 565.077 72.464C568.302 71.0379 572.004 70.3248 576.18 70.3248C580.357 70.3248 584.075 71.0379 587.335 72.464C590.594 73.8562 593.328 75.8087 595.535 78.3214C597.776 80.8341 599.474 83.8053 600.628 87.2348C601.783 90.6304 602.36 94.3486 602.36 98.3893V99.4589C602.36 103.466 601.783 107.184 600.628 110.613C599.474 114.009 597.776 116.98 595.535 119.527C593.328 122.04 590.611 123.992 587.386 125.384C584.16 126.776 580.459 127.473 576.282 127.473C572.105 127.473 568.387 126.776 565.127 125.384C561.902 123.992 559.168 122.04 556.927 119.527C554.72 116.98 553.039 114.009 551.885 110.613C550.73 107.184 550.153 103.466 550.153 99.4589ZM564.822 98.3893V99.4589C564.822 101.768 565.026 103.924 565.433 105.928C565.841 107.931 566.486 109.697 567.369 111.225C568.285 112.719 569.474 113.89 570.934 114.739C572.394 115.588 574.177 116.012 576.282 116.012C578.319 116.012 580.068 115.588 581.528 114.739C582.988 113.89 584.16 112.719 585.043 111.225C585.925 109.697 586.571 107.931 586.978 105.928C587.419 103.924 587.64 101.768 587.64 99.4589V98.3893C587.64 96.1482 587.419 94.043 586.978 92.0735C586.571 90.0701 585.908 88.3044 584.992 86.7764C584.109 85.2145 582.937 83.992 581.477 83.1092C580.017 82.2263 578.251 81.7849 576.18 81.7849C574.109 81.7849 572.343 82.2263 570.883 83.1092C569.457 83.992 568.285 85.2145 567.369 86.7764C566.486 88.3044 565.841 90.0701 565.433 92.0735C565.026 94.043 564.822 96.1482 564.822 98.3893ZM625.739 83.1092V126.454H611.07V71.3435H624.822L625.739 83.1092ZM623.599 96.9632H619.627C619.627 92.8885 620.153 89.2212 621.206 85.9615C622.258 82.6678 623.735 79.8664 625.637 77.5574C627.538 75.2145 629.796 73.4318 632.411 72.2094C635.06 70.953 638.014 70.3248 641.274 70.3248C643.854 70.3248 646.214 70.6983 648.353 71.4453C650.493 72.1924 652.326 73.3808 653.854 75.0107C655.416 76.6406 656.605 78.7968 657.42 81.4793C658.268 84.1618 658.693 87.4386 658.693 91.3095V126.454H643.922V91.2586C643.922 88.8138 643.583 86.9122 642.903 85.554C642.224 84.1958 641.223 83.245 639.898 82.7017C638.608 82.1245 637.012 81.8358 635.111 81.8358C633.141 81.8358 631.426 82.2263 629.966 83.0073C628.54 83.7883 627.352 84.8749 626.401 86.2671C625.484 87.6253 624.788 89.2212 624.313 91.0549C623.837 92.8885 623.599 94.8579 623.599 96.9632ZM699.644 111.225C699.644 110.172 699.338 109.221 698.727 108.372C698.116 107.523 696.978 106.742 695.314 106.029C693.684 105.282 691.324 104.603 688.234 103.992C685.45 103.381 682.852 102.617 680.442 101.7C678.065 100.749 675.993 99.6117 674.228 98.2875C672.496 96.9632 671.138 95.4012 670.153 93.6016C669.168 91.7679 668.676 89.6797 668.676 87.3367C668.676 85.0277 669.168 82.8545 670.153 80.8172C671.172 78.7798 672.615 76.9802 674.482 75.4182C676.384 73.8223 678.693 72.5829 681.409 71.7C684.16 70.7832 687.25 70.3248 690.679 70.3248C695.467 70.3248 699.576 71.0888 703.005 72.6168C706.469 74.1448 709.117 76.2501 710.951 78.9326C712.819 81.5812 713.752 84.6032 713.752 87.9988H699.083C699.083 86.5727 698.778 85.2993 698.167 84.1788C697.589 83.0243 696.672 82.1245 695.416 81.4793C694.194 80.8002 692.598 80.4606 690.628 80.4606C688.998 80.4606 687.589 80.7493 686.401 81.3265C685.212 81.8698 684.296 82.6168 683.65 83.5676C683.039 84.4844 682.734 85.5031 682.734 86.6236C682.734 87.4725 682.903 88.2365 683.243 88.9156C683.616 89.5608 684.211 90.155 685.026 90.6983C685.841 91.2416 686.893 91.751 688.184 92.2263C689.508 92.6678 691.138 93.0752 693.073 93.4488C697.046 94.2637 700.594 95.3333 703.718 96.6576C706.842 97.9479 709.321 99.7136 711.155 101.955C712.988 104.162 713.905 107.065 713.905 110.664C713.905 113.109 713.362 115.35 712.275 117.388C711.189 119.425 709.627 121.208 707.589 122.736C705.552 124.23 703.107 125.401 700.255 126.25C697.436 127.065 694.262 127.473 690.73 127.473C685.603 127.473 681.257 126.556 677.691 124.722C674.16 122.888 671.477 120.563 669.644 117.744C667.844 114.892 666.944 111.972 666.944 108.984H680.849C680.917 110.987 681.426 112.6 682.377 113.822C683.362 115.045 684.601 115.928 686.095 116.471C687.623 117.014 689.27 117.286 691.036 117.286C692.937 117.286 694.516 117.031 695.773 116.522C697.029 115.978 697.98 115.265 698.625 114.383C699.304 113.466 699.644 112.413 699.644 111.225Z" fill="#0F58EB"/>
<path d="M724.143 119.374C724.143 117.201 724.89 115.384 726.384 113.924C727.912 112.464 729.932 111.734 732.445 111.734C734.958 111.734 736.961 112.464 738.455 113.924C739.983 115.384 740.747 117.201 740.747 119.374C740.747 121.547 739.983 123.364 738.455 124.824C736.961 126.284 734.958 127.014 732.445 127.014C729.932 127.014 727.912 126.284 726.384 124.824C724.89 123.364 724.143 121.547 724.143 119.374Z" fill="black"/>
</svg>
